<?xml version="1.0" encoding="UTF-8" standalone="no"?>
<!-- Created with Inkscape (http://www.inkscape.org/) -->

<svg
   xmlns:dc="http://purl.org/dc/elements/1.1/"
   xmlns:cc="http://creativecommons.org/ns#"
   xmlns:rdf="http://www.w3.org/1999/02/22-rdf-syntax-ns#"
   xmlns:svg="http://www.w3.org/2000/svg"
   xmlns="http://www.w3.org/2000/svg"
   xmlns:sodipodi="http://sodipodi.sourceforge.net/DTD/sodipodi-0.dtd"
   xmlns:inkscape="http://www.inkscape.org/namespaces/inkscape"
   width="143.40414mm"
   height="89.429169mm"
   viewBox="0 0 143.40414 89.429169"
   version="1.1"
   id="svg8"
   inkscape:version="0.92.3 (2405546, 2018-03-11)"
   sodipodi:docname="nav-header-background-cropped2.svg">
  <defs
     id="defs2">
    <filter
       style="color-interpolation-filters:sRGB"
       inkscape:label="Drop Shadow"
       id="filter1200">
      <feFlood
         flood-opacity="0.4"
         flood-color="rgb(0,0,0)"
         result="flood"
         id="feFlood1190" />
      <feComposite
         in="flood"
         in2="SourceGraphic"
         operator="out"
         result="composite1"
         id="feComposite1192" />
      <feGaussianBlur
         in="composite1"
         stdDeviation="1"
         result="blur"
         id="feGaussianBlur1194" />
      <feOffset
         dx="3"
         dy="3"
         result="offset"
         id="feOffset1196" />
      <feComposite
         in="offset"
         in2="SourceGraphic"
         operator="atop"
         result="composite2"
         id="feComposite1198" />
    </filter>
    <filter
       style="color-interpolation-filters:sRGB"
       inkscape:label="Drop Shadow"
       id="filter1214">
      <feFlood
         flood-opacity="0.4"
         flood-color="rgb(0,0,0)"
         result="flood"
         id="feFlood1204" />
      <feComposite
         in="flood"
         in2="SourceGraphic"
         operator="out"
         result="composite1"
         id="feComposite1206" />
      <feGaussianBlur
         in="composite1"
         stdDeviation="1"
         result="blur"
         id="feGaussianBlur1208" />
      <feOffset
         dx="3"
         dy="3"
         result="offset"
         id="feOffset1210" />
      <feComposite
         in="offset"
         in2="SourceGraphic"
         operator="atop"
         result="composite2"
         id="feComposite1212" />
    </filter>
    <filter
       style="color-interpolation-filters:sRGB"
       inkscape:label="Drop Shadow"
       id="filter1228">
      <feFlood
         flood-opacity="0.4"
         flood-color="rgb(0,0,0)"
         result="flood"
         id="feFlood1218" />
      <feComposite
         in="flood"
         in2="SourceGraphic"
         operator="out"
         result="composite1"
         id="feComposite1220" />
      <feGaussianBlur
         in="composite1"
         stdDeviation="1"
         result="blur"
         id="feGaussianBlur1222" />
      <feOffset
         dx="3"
         dy="3"
         result="offset"
         id="feOffset1224" />
      <feComposite
         in="offset"
         in2="SourceGraphic"
         operator="atop"
         result="composite2"
         id="feComposite1226" />
    </filter>
    <filter
       style="color-interpolation-filters:sRGB"
       inkscape:label="Drop Shadow"
       id="filter1257">
      <feFlood
         flood-opacity="0.4"
         flood-color="rgb(0,0,0)"
         result="flood"
         id="feFlood1247" />
      <feComposite
         in="flood"
         in2="SourceGraphic"
         operator="out"
         result="composite1"
         id="feComposite1249" />
      <feGaussianBlur
         in="composite1"
         stdDeviation="1"
         result="blur"
         id="feGaussianBlur1251" />
      <feOffset
         dx="3"
         dy="3"
         result="offset"
         id="feOffset1253" />
      <feComposite
         in="offset"
         in2="SourceGraphic"
         operator="atop"
         result="composite2"
         id="feComposite1255" />
    </filter>
    <filter
       inkscape:collect="always"
       style="color-interpolation-filters:sRGB"
       id="filter1656"
       x="-0.029127274"
       width="1.0582545"
       y="-0.047117647"
       height="1.0942353">
      <feGaussianBlur
         inkscape:collect="always"
         stdDeviation="6.675"
         id="feGaussianBlur1658" />
    </filter>
  </defs>
  <sodipodi:namedview
     id="base"
     pagecolor="#ffffff"
     bordercolor="#666666"
     borderopacity="1.0"
     inkscape:pageopacity="0.0"
     inkscape:pageshadow="2"
     inkscape:zoom="1.2436308"
     inkscape:cx="320.5224"
     inkscape:cy="155.09575"
     inkscape:document-units="mm"
     inkscape:current-layer="layer1"
     showgrid="false"
     inkscape:window-width="1664"
     inkscape:window-height="872"
     inkscape:window-x="0"
     inkscape:window-y="0"
     inkscape:window-maximized="1"
     fit-margin-top="0"
     fit-margin-left="0"
     fit-margin-right="0"
     fit-margin-bottom="0" />
  <metadata
     id="metadata5">
    <rdf:RDF>
      <cc:Work
         rdf:about="">
        <dc:format>image/svg+xml</dc:format>
        <dc:type
           rdf:resource="http://purl.org/dc/dcmitype/StillImage" />
        <dc:title></dc:title>
      </cc:Work>
    </rdf:RDF>
  </metadata>
  <g
     inkscape:label="Layer 1"
     inkscape:groupmode="layer"
     id="layer1"
     transform="translate(-32.127975,-46.779762)">
    <path
       style="opacity:1;fill:#01579b;fill-opacity:1;stroke:none;stroke-width:4.78110218;stroke-miterlimit:4;stroke-dasharray:none;stroke-opacity:1"
       d="M 0,0 V 338 H 542 V 0 Z"
       id="rect815"
       transform="matrix(0.26458333,0,0,0.26458333,32.127975,46.779762)"
       inkscape:connector-curvature="0" />
    <path
       style="opacity:1;fill:#676767;fill-opacity:1;stroke:none;stroke-width:4.78110218;stroke-miterlimit:4;stroke-dasharray:none;stroke-opacity:1"
       d="m 542,145.37891 v -17.60938 a 217.32283,217.32283 0 0 1 -6.08203,7.14453 217.32283,217.32283 0 0 1 -15.66016,15.05469 217.32283,217.32283 0 0 1 -17.08593,13.41406 217.32283,217.32283 0 0 1 -18.3418,11.64258 217.32283,217.32283 0 0 1 -19.41016,9.75195 217.32283,217.32283 0 0 1 -20.28711,7.76758 217.32283,217.32283 0 0 1 -20.96093,5.70117 217.32283,217.32283 0 0 1 -21.42579,3.58203 217.32283,217.32283 0 0 1 -21.67773,1.42383 217.32283,217.32283 0 0 1 -3.05274,0.0274 217.32283,217.32283 0 0 1 -21.69726,-1.0918 217.32283,217.32283 0 0 1 -21.47852,-3.25 217.32283,217.32283 0 0 1 -21.04687,-5.37891 217.32283,217.32283 0 0 1 -20.4043,-7.45312 217.32283,217.32283 0 0 1 -19.55859,-9.45313 A 217.32283,217.32283 0 0 1 255.3125,165.29492 217.32283,217.32283 0 0 1 238.02148,152.14453 217.32283,217.32283 0 0 1 222.13086,137.33398 217.32283,217.32283 0 0 1 207.79688,121.01172 217.32283,217.32283 0 0 1 195.16406,103.33789 217.32283,217.32283 0 0 1 184.35938,84.492188 217.32283,217.32283 0 0 1 175.49023,64.662109 217.32283,217.32283 0 0 1 168.64453,44.046875 217.32283,217.32283 0 0 1 163.89062,22.849609 217.32283,217.32283 0 0 1 161.27734,1.2851562 217.32283,217.32283 0 0 1 161.19141,0 h -43.85157 a 250.00001,250.00001 0 0 0 4.31446,24.613281 250.00001,250.00001 0 0 0 6.75,24.060547 250.00001,250.00001 0 0 0 9.11718,23.267578 250.00001,250.00001 0 0 0 11.39649,22.240235 250.00001,250.00001 0 0 0 13.55859,20.990239 250.00001,250.00001 0 0 0 15.58789,19.5332 250.00001,250.00001 0 0 0 17.45899,17.8789 250.00001,250.00001 0 0 0 19.15625,16.04688 250.00001,250.00001 0 0 0 20.66406,14.05273 250.00001,250.00001 0 0 0 21.96289,11.92188 250.00001,250.00001 0 0 0 23.04297,9.66797 250.00001,250.00001 0 0 0 23.89258,7.32031 250.00001,250.00001 0 0 0 24.50586,4.89844 250.00001,250.00001 0 0 0 24.87109,2.42773 250.00001,250.00001 0 0 0 11.58789,0.2793 250.00001,250.00001 0 0 0 24.95508,-1.28711 250.00001,250.00001 0 0 0 24.70312,-3.77149 250.00001,250.00001 0 0 0 24.20508,-6.21874 250.00001,250.00001 0 0 0 23.46094,-8.60352 250.00001,250.00001 0 0 0 22.48633,-10.90234 250.00001,250.00001 0 0 0 21.2832,-13.09375 250.00001,250.00001 0 0 0 19.8711,-15.1543 A 250.00001,250.00001 0 0 0 542,145.37891 Z"
       id="path1330"
       transform="matrix(0.26458333,0,0,0.26458333,32.127975,46.779762)"
       inkscape:connector-curvature="0" />
    <path
       style="opacity:1;fill:#4f83cc;fill-opacity:1;stroke:none;stroke-width:4.78110218;stroke-miterlimit:4;stroke-dasharray:none;stroke-opacity:1"
       d="M 0,65.003906 V 144.32422 A 385.96664,385.96664 0 0 0 327.25977,326.55859 385.96664,385.96664 0 0 0 542,260.80859 v -85.5039 A 340.15748,340.15748 0 0 1 310.39844,267.05664 340.15748,340.15748 0 0 1 0,65.003906 Z"
       id="path1188"
       transform="matrix(0.26458333,0,0,0.26458333,32.127975,46.779762)"
       inkscape:connector-curvature="0" />
    <path
       style="opacity:1;fill:#4f83cc;fill-opacity:1;stroke:none;stroke-width:5.21303988;stroke-miterlimit:4;stroke-dasharray:none;stroke-opacity:1"
       d="M 542,145.37891 V 127.76953 A 217.32283,217.32283 0 0 1 378.01562,203.2793 217.32283,217.32283 0 0 1 161.19141,0 H 117.33984 A 250.00001,250.00001 0 0 0 365.20703,219.19922 250.00001,250.00001 0 0 0 542,145.37891 Z"
       id="path1202"
       transform="matrix(0.26458333,0,0,0.26458333,32.127975,46.779762)"
       inkscape:connector-curvature="0" />
    <path
       style="opacity:1;fill:#4f83cc;fill-opacity:1;stroke:none;stroke-width:4.74707413;stroke-miterlimit:4;stroke-dasharray:none;stroke-opacity:1"
       d="M 542,95.974609 V 46.685547 A 117.16535,117.16535 0 0 1 444.83594,98.859375 117.16535,117.16535 0 0 1 329.17969,0 H 300.69727 A 154.96063,154.96063 0 0 0 452.63086,124.57422 154.96063,154.96063 0 0 0 542,95.974609 Z"
       id="path1245"
       transform="matrix(0.26458333,0,0,0.26458333,32.127975,46.779762)"
       inkscape:connector-curvature="0" />
    <path
       style="opacity:0.2;fill:#000000;fill-opacity:1;stroke:none;stroke-width:4.78110218;stroke-miterlimit:4;stroke-dasharray:none;stroke-opacity:1;filter:url(#filter1656)"
       d="m 542,260.80859 a 385.96664,385.96664 0 0 1 -29.75195,18.28907 385.96664,385.96664 0 0 1 -34.72071,16.82031 385.96664,385.96664 0 0 1 -36.22656,13.27148 385.96664,385.96664 0 0 1 -37.37109,9.58789 385.96664,385.96664 0 0 1 -38.14063,5.8086 385.96664,385.96664 0 0 1 -38.52929,1.97265 385.96664,385.96664 0 0 1 -5.12891,-0.043 385.96664,385.96664 0 0 1 -38.5,-2.49414 385.96664,385.96664 0 0 1 -38.05859,-6.32812 385.96664,385.96664 0 0 1 -37.23633,-10.09375 385.96664,385.96664 0 0 1 -36.04297,-13.76172 385.96664,385.96664 0 0 1 -34.48828,-17.29101 385.96664,385.96664 0 0 1 -32.5918,-20.64844 A 385.96664,385.96664 0 0 1 74.847656,232.09961 385.96664,385.96664 0 0 1 47.009766,205.38867 385.96664,385.96664 0 0 1 21.976562,176.0332 385.96664,385.96664 0 0 1 0,144.32422 V 338 h 542 z"
       id="path1702"
       transform="matrix(0.26458333,0,0,0.26458333,32.127975,46.779762)"
       inkscape:connector-curvature="0" />
    <path
       style="opacity:0.2;fill:#000000;fill-opacity:1;stroke:none;stroke-width:4.78110218;stroke-miterlimit:4;stroke-dasharray:none;stroke-opacity:1;filter:url(#filter1656)"
       d="m 329.17969,0 a 117.16535,117.16535 0 0 0 0.2539,1.5390625 117.16535,117.16535 0 0 0 2.55664,11.4277345 117.16535,117.16535 0 0 0 3.6875,11.117187 117.16535,117.16535 0 0 0 4.77735,10.69336 117.16535,117.16535 0 0 0 5.82031,10.162109 117.16535,117.16535 0 0 0 6.80664,9.529297 117.16535,117.16535 0 0 0 7.72461,8.804688 117.16535,117.16535 0 0 0 8.56445,7.988281 117.16535,117.16535 0 0 0 9.32032,7.091797 117.16535,117.16535 0 0 0 9.98047,6.128906 117.16535,117.16535 0 0 0 10.54296,5.099609 117.16535,117.16535 0 0 0 10.99805,4.023438 117.16535,117.16535 0 0 0 11.3457,2.904297 117.16535,117.16535 0 0 0 11.58008,1.755859 117.16535,117.16535 0 0 0 11.69727,0.59375 117.16535,117.16535 0 0 0 1.87109,-0.01758 117.16535,117.16535 0 0 0 11.68555,-0.789063 117.16535,117.16535 0 0 0 11.54883,-1.951172 117.16535,117.16535 0 0 0 11.29492,-3.09375 117.16535,117.16535 0 0 0 10.92969,-4.207031 117.16535,117.16535 0 0 0 10.45703,-5.27539 117.16535,117.16535 0 0 0 9.875,-6.294922 117.16535,117.16535 0 0 0 9.19922,-7.248047 117.16535,117.16535 0 0 0 8.42968,-8.13086 117.16535,117.16535 0 0 0 7.57617,-8.93164 A 117.16535,117.16535 0 0 0 542,46.685547 V 0 Z"
       id="path1692"
       transform="matrix(0.26458333,0,0,0.26458333,32.127975,46.779762)"
       inkscape:connector-curvature="0" />
    <path
       style="opacity:0.2;fill:#000000;fill-opacity:1;stroke:none;stroke-width:4.78110218;stroke-miterlimit:4;stroke-dasharray:none;stroke-opacity:1;filter:url(#filter1656)"
       d="m 161.19141,0 a 217.32283,217.32283 0 0 0 0.0859,1.2851562 217.32283,217.32283 0 0 0 2.61328,21.5644528 217.32283,217.32283 0 0 0 4.75391,21.197266 217.32283,217.32283 0 0 0 6.8457,20.615234 217.32283,217.32283 0 0 0 8.86915,19.830079 217.32283,217.32283 0 0 0 10.80468,18.845702 217.32283,217.32283 0 0 0 12.63282,17.67383 217.32283,217.32283 0 0 0 14.33398,16.32226 217.32283,217.32283 0 0 0 15.89062,14.81055 217.32283,217.32283 0 0 0 17.29102,13.15039 217.32283,217.32283 0 0 0 18.51758,11.35742 217.32283,217.32283 0 0 0 19.55859,9.45313 217.32283,217.32283 0 0 0 20.4043,7.45312 217.32283,217.32283 0 0 0 21.04687,5.37891 217.32283,217.32283 0 0 0 21.47852,3.25 217.32283,217.32283 0 0 0 21.69726,1.0918 217.32283,217.32283 0 0 0 3.05274,-0.0274 217.32283,217.32283 0 0 0 21.67773,-1.42383 217.32283,217.32283 0 0 0 21.42579,-3.58203 217.32283,217.32283 0 0 0 20.96093,-5.70117 217.32283,217.32283 0 0 0 20.28711,-7.76758 217.32283,217.32283 0 0 0 19.41016,-9.75195 217.32283,217.32283 0 0 0 18.3418,-11.64258 217.32283,217.32283 0 0 0 17.08593,-13.41406 217.32283,217.32283 0 0 0 15.66016,-15.05469 A 217.32283,217.32283 0 0 0 542,127.76953 V 95.974609 a 154.96063,154.96063 0 0 1 -1.90625,1.421875 154.96063,154.96063 0 0 1 -13.19531,8.113286 154.96063,154.96063 0 0 1 -13.93946,6.75585 154.96063,154.96063 0 0 1 -14.54296,5.32813 154.96063,154.96063 0 0 1 -15.00391,3.85156 154.96063,154.96063 0 0 1 -15.3125,2.33399 154.96063,154.96063 0 0 1 -15.46875,0.79492 154.96063,154.96063 0 0 1 -11.34961,-0.41797 154.96063,154.96063 0 0 1 -15.37305,-1.9082 154.96063,154.96063 0 0 1 -15.10351,-3.43164 154.96063,154.96063 0 0 1 -14.6875,-4.92188 154.96063,154.96063 0 0 1 -14.1211,-6.36523 A 154.96063,154.96063 0 0 1 368.58008,99.787109 154.96063,154.96063 0 0 1 356.00391,90.744141 154.96063,154.96063 0 0 1 344.39453,80.490234 154.96063,154.96063 0 0 1 333.86523,69.128906 154.96063,154.96063 0 0 1 324.52344,56.773438 154.96063,154.96063 0 0 1 316.46289,43.546875 154.96063,154.96063 0 0 1 309.76172,29.582031 154.96063,154.96063 0 0 1 304.48828,15.017578 154.96063,154.96063 0 0 1 300.69727,0 Z"
       id="path1690"
       transform="matrix(0.26458333,0,0,0.26458333,32.127975,46.779762)"
       inkscape:connector-curvature="0" />
    <path
       style="opacity:0.2;fill:#000000;fill-opacity:1;stroke:none;stroke-width:4.78110218;stroke-miterlimit:4;stroke-dasharray:none;stroke-opacity:1;filter:url(#filter1656)"
       d="m 0,0 v 65.003906 a 340.15748,340.15748 0 0 0 7.5,15.777344 340.15748,340.15748 0 0 0 16.876953,29.51563 340.15748,340.15748 0 0 0 19.742188,27.68554 340.15748,340.15748 0 0 0 22.404297,25.57422 340.15748,340.15748 0 0 0 24.847656,23.21094 340.15748,340.15748 0 0 0 27.039066,20.61328 340.15748,340.15748 0 0 0 28.96484,17.8125 340.15748,340.15748 0 0 0 30.5957,14.83008 340.15748,340.15748 0 0 0 31.92383,11.70312 340.15748,340.15748 0 0 0 32.93359,8.45703 340.15748,340.15748 0 0 0 33.61329,5.12696 340.15748,340.15748 0 0 0 33.95703,1.74609 340.15748,340.15748 0 0 0 27.80859,-1.1582 340.15748,340.15748 0 0 0 33.70313,-4.49414 340.15748,340.15748 0 0 0 33.08593,-7.83789 340.15748,340.15748 0 0 0 32.13868,-11.09961 340.15748,340.15748 0 0 0 30.86914,-14.25196 340.15748,340.15748 0 0 0 29.29297,-17.26562 A 340.15748,340.15748 0 0 0 524.7207,190.84766 340.15748,340.15748 0 0 0 542,175.30469 v -29.92578 a 250.00001,250.00001 0 0 1 -15.82812,14.78906 250.00001,250.00001 0 0 1 -19.8711,15.1543 250.00001,250.00001 0 0 1 -21.2832,13.09375 250.00001,250.00001 0 0 1 -22.48633,10.90234 250.00001,250.00001 0 0 1 -23.46094,8.60352 250.00001,250.00001 0 0 1 -24.20508,6.21874 250.00001,250.00001 0 0 1 -24.70312,3.77149 250.00001,250.00001 0 0 1 -24.95508,1.28711 250.00001,250.00001 0 0 1 -11.58789,-0.2793 250.00001,250.00001 0 0 1 -24.87109,-2.42773 250.00001,250.00001 0 0 1 -24.50586,-4.89844 250.00001,250.00001 0 0 1 -23.89258,-7.32031 250.00001,250.00001 0 0 1 -23.04297,-9.66797 250.00001,250.00001 0 0 1 -21.96289,-11.92188 250.00001,250.00001 0 0 1 -20.66406,-14.05273 250.00001,250.00001 0 0 1 -19.15625,-16.04688 250.00001,250.00001 0 0 1 -17.45899,-17.8789 250.00001,250.00001 0 0 1 -15.58789,-19.5332 A 250.00001,250.00001 0 0 1 148.91797,94.181641 250.00001,250.00001 0 0 1 137.52148,71.941406 250.00001,250.00001 0 0 1 128.4043,48.673828 250.00001,250.00001 0 0 1 121.6543,24.613281 250.00001,250.00001 0 0 1 117.33984,0 Z"
       id="path1332"
       transform="matrix(0.26458333,0,0,0.26458333,32.127975,46.779762)"
       inkscape:connector-curvature="0" />
    <path
       style="opacity:1;fill:#01579b;fill-opacity:1;stroke:none;stroke-width:4.78110218;stroke-miterlimit:4;stroke-dasharray:none;stroke-opacity:1"
       d="m 542,253.49023 a 385.96664,385.96664 0 0 1 -4.88477,3.4043 385.96664,385.96664 0 0 1 -32.86718,20.20313 385.96664,385.96664 0 0 1 -34.72071,16.82031 385.96664,385.96664 0 0 1 -36.22656,13.27148 385.96664,385.96664 0 0 1 -37.37109,9.58789 385.96664,385.96664 0 0 1 -38.14063,5.8086 385.96664,385.96664 0 0 1 -38.52929,1.97265 385.96664,385.96664 0 0 1 -5.12891,-0.043 385.96664,385.96664 0 0 1 -38.5,-2.49414 385.96664,385.96664 0 0 1 -38.05859,-6.32812 A 385.96664,385.96664 0 0 1 200.33594,305.59961 385.96664,385.96664 0 0 1 164.29297,291.83789 385.96664,385.96664 0 0 1 129.80469,274.54688 385.96664,385.96664 0 0 1 97.212891,253.89844 385.96664,385.96664 0 0 1 66.847656,230.09961 385.96664,385.96664 0 0 1 39.009766,203.38867 385.96664,385.96664 0 0 1 13.976562,174.0332 385.96664,385.96664 0 0 1 0,153.86719 V 338 h 542 z"
       id="path1683"
       transform="matrix(0.26458333,0,0,0.26458333,32.127975,46.779762)"
       inkscape:connector-curvature="0" />
    <path
       style="opacity:1;fill:#01579b;fill-opacity:1;stroke:none;stroke-width:4.78110218;stroke-miterlimit:4;stroke-dasharray:none;stroke-opacity:1"
       d="m 321.53711,0 a 117.16535,117.16535 0 0 0 2.45312,10.966797 117.16535,117.16535 0 0 0 3.6875,11.117187 117.16535,117.16535 0 0 0 4.77735,10.69336 117.16535,117.16535 0 0 0 5.82031,10.162109 117.16535,117.16535 0 0 0 6.80664,9.529297 117.16535,117.16535 0 0 0 7.72461,8.804688 117.16535,117.16535 0 0 0 8.56445,7.988281 117.16535,117.16535 0 0 0 9.32032,7.091797 117.16535,117.16535 0 0 0 9.98047,6.128906 117.16535,117.16535 0 0 0 10.54296,5.099609 117.16535,117.16535 0 0 0 10.99805,4.023438 117.16535,117.16535 0 0 0 11.3457,2.904297 117.16535,117.16535 0 0 0 11.58008,1.755859 117.16535,117.16535 0 0 0 11.69727,0.59375 117.16535,117.16535 0 0 0 1.87109,-0.01758 117.16535,117.16535 0 0 0 11.68555,-0.789063 117.16535,117.16535 0 0 0 11.54883,-1.951172 117.16535,117.16535 0 0 0 11.29492,-3.09375 117.16535,117.16535 0 0 0 10.92969,-4.207031 117.16535,117.16535 0 0 0 10.45703,-5.27539 117.16535,117.16535 0 0 0 9.875,-6.294922 117.16535,117.16535 0 0 0 9.19922,-7.248047 117.16535,117.16535 0 0 0 8.42968,-8.13086 117.16535,117.16535 0 0 0 7.57617,-8.93164 117.16535,117.16535 0 0 0 6.64649,-9.642578 A 117.16535,117.16535 0 0 0 542,31.019531 V 0 Z"
       id="path1681"
       transform="matrix(0.26458333,0,0,0.26458333,32.127975,46.779762)"
       inkscape:connector-curvature="0" />
    <path
       style="opacity:1;fill:#01579b;fill-opacity:1;stroke:none;stroke-width:4.78110218;stroke-miterlimit:4;stroke-dasharray:none;stroke-opacity:1"
       d="m 542,116.375 a 217.32283,217.32283 0 0 0 0,-0.002 V 88.003906 a 154.96063,154.96063 0 0 1 -9.90625,7.392578 154.96063,154.96063 0 0 1 -13.19531,8.113286 154.96063,154.96063 0 0 1 -13.93946,6.75585 154.96063,154.96063 0 0 1 -14.54296,5.32813 154.96063,154.96063 0 0 1 -15.00391,3.85156 154.96063,154.96063 0 0 1 -15.3125,2.33399 154.96063,154.96063 0 0 1 -15.46875,0.79492 154.96063,154.96063 0 0 1 -11.34961,-0.41797 154.96063,154.96063 0 0 1 -15.37305,-1.9082 154.96063,154.96063 0 0 1 -15.10351,-3.43164 154.96063,154.96063 0 0 1 -14.6875,-4.92188 154.96063,154.96063 0 0 1 -14.1211,-6.36523 A 154.96063,154.96063 0 0 1 360.58008,97.787109 154.96063,154.96063 0 0 1 348.00391,88.744141 154.96063,154.96063 0 0 1 336.39453,78.490234 154.96063,154.96063 0 0 1 325.86523,67.128906 154.96063,154.96063 0 0 1 316.52344,54.773438 154.96063,154.96063 0 0 1 308.46289,41.546875 154.96063,154.96063 0 0 1 301.76172,27.582031 154.96063,154.96063 0 0 1 296.48828,13.017578 154.96063,154.96063 0 0 1 293.20117,0 H 153.36328 a 217.32283,217.32283 0 0 0 2.52734,20.849609 217.32283,217.32283 0 0 0 4.75391,21.197266 217.32283,217.32283 0 0 0 6.8457,20.615234 217.32283,217.32283 0 0 0 8.86915,19.830079 217.32283,217.32283 0 0 0 10.80468,18.845702 217.32283,217.32283 0 0 0 12.63282,17.67383 217.32283,217.32283 0 0 0 14.33398,16.32226 217.32283,217.32283 0 0 0 15.89062,14.81055 217.32283,217.32283 0 0 0 17.29102,13.15039 217.32283,217.32283 0 0 0 18.51758,11.35742 217.32283,217.32283 0 0 0 19.55859,9.45313 217.32283,217.32283 0 0 0 20.4043,7.45312 217.32283,217.32283 0 0 0 21.04687,5.37891 217.32283,217.32283 0 0 0 21.47852,3.25 217.32283,217.32283 0 0 0 21.69726,1.0918 217.32283,217.32283 0 0 0 3.05274,-0.0274 217.32283,217.32283 0 0 0 21.67773,-1.42383 217.32283,217.32283 0 0 0 21.42579,-3.58203 217.32283,217.32283 0 0 0 20.96093,-5.70117 217.32283,217.32283 0 0 0 20.28711,-7.76758 217.32283,217.32283 0 0 0 19.41016,-9.75195 217.32283,217.32283 0 0 0 18.3418,-11.64258 217.32283,217.32283 0 0 0 17.08593,-13.41406 217.32283,217.32283 0 0 0 15.66016,-15.05469 A 217.32283,217.32283 0 0 0 542,116.375 Z"
       id="path1675"
       transform="matrix(0.26458333,0,0,0.26458333,32.127975,46.779762)"
       inkscape:connector-curvature="0" />
    <path
       style="opacity:1;fill:#01579b;fill-opacity:1;stroke:none;stroke-width:4.78110218;stroke-miterlimit:4;stroke-dasharray:none;stroke-opacity:1"
       d="M 109.68945,0 H 0 v 79.65625 a 340.15748,340.15748 0 0 0 16.376953,28.64063 340.15748,340.15748 0 0 0 19.742188,27.68554 340.15748,340.15748 0 0 0 22.404297,25.57422 340.15748,340.15748 0 0 0 24.847656,23.21094 340.15748,340.15748 0 0 0 27.039066,20.61328 340.15748,340.15748 0 0 0 28.96484,17.8125 340.15748,340.15748 0 0 0 30.5957,14.83008 340.15748,340.15748 0 0 0 31.92383,11.70312 340.15748,340.15748 0 0 0 32.93359,8.45703 340.15748,340.15748 0 0 0 33.61329,5.12696 340.15748,340.15748 0 0 0 33.95703,1.74609 340.15748,340.15748 0 0 0 27.80859,-1.1582 340.15748,340.15748 0 0 0 33.70313,-4.49414 340.15748,340.15748 0 0 0 33.08593,-7.83789 340.15748,340.15748 0 0 0 32.13868,-11.09961 340.15748,340.15748 0 0 0 30.86914,-14.25196 340.15748,340.15748 0 0 0 29.29297,-17.26562 A 340.15748,340.15748 0 0 0 516.7207,188.84766 340.15748,340.15748 0 0 0 542,166.10938 v -30.94141 a 250.00001,250.00001 0 0 1 -5.56836,5.93945 250.00001,250.00001 0 0 1 -18.25976,17.06055 250.00001,250.00001 0 0 1 -19.8711,15.1543 250.00001,250.00001 0 0 1 -21.2832,13.09375 250.00001,250.00001 0 0 1 -22.48633,10.90234 250.00001,250.00001 0 0 1 -23.46094,8.60352 250.00001,250.00001 0 0 1 -24.20508,6.21874 250.00001,250.00001 0 0 1 -24.70312,3.77149 250.00001,250.00001 0 0 1 -24.95508,1.28711 250.00001,250.00001 0 0 1 -11.58789,-0.2793 250.00001,250.00001 0 0 1 -24.87109,-2.42773 250.00001,250.00001 0 0 1 -24.50586,-4.89844 250.00001,250.00001 0 0 1 -23.89258,-7.32031 250.00001,250.00001 0 0 1 -23.04297,-9.66797 250.00001,250.00001 0 0 1 -21.96289,-11.92188 250.00001,250.00001 0 0 1 -20.66406,-14.05273 250.00001,250.00001 0 0 1 -19.15625,-16.04688 250.00001,250.00001 0 0 1 -17.45899,-17.8789 250.00001,250.00001 0 0 1 -15.58789,-19.5332 A 250.00001,250.00001 0 0 1 140.91797,92.181641 250.00001,250.00001 0 0 1 129.52148,69.941406 250.00001,250.00001 0 0 1 120.4043,46.673828 250.00001,250.00001 0 0 1 113.6543,22.613281 250.00001,250.00001 0 0 1 109.68945,0 Z"
       id="path1673"
       transform="matrix(0.26458333,0,0,0.26458333,32.127975,46.779762)"
       inkscape:connector-curvature="0" />
  </g>
</svg>
