<?xml version="1.0" encoding="UTF-8" standalone="no"?>
<!-- Created with Inkscape (http://www.inkscape.org/) -->

<svg
   xmlns:dc="http://purl.org/dc/elements/1.1/"
   xmlns:cc="http://creativecommons.org/ns#"
   xmlns:rdf="http://www.w3.org/1999/02/22-rdf-syntax-ns#"
   xmlns:svg="http://www.w3.org/2000/svg"
   xmlns="http://www.w3.org/2000/svg"
   xmlns:sodipodi="http://sodipodi.sourceforge.net/DTD/sodipodi-0.dtd"
   xmlns:inkscape="http://www.inkscape.org/namespaces/inkscape"
   width="145.52083mm"
   height="89.958336mm"
   viewBox="0 0 145.52083 89.958336"
   version="1.1"
   id="svg8"
   inkscape:version="0.92.3 (2405546, 2018-03-11)"
   sodipodi:docname="nav-header-background-cropped.svg">
  <defs
     id="defs2">
    <filter
       style="color-interpolation-filters:sRGB"
       inkscape:label="Drop Shadow"
       id="filter1200">
      <feFlood
         flood-opacity="0.4"
         flood-color="rgb(0,0,0)"
         result="flood"
         id="feFlood1190" />
      <feComposite
         in="flood"
         in2="SourceGraphic"
         operator="out"
         result="composite1"
         id="feComposite1192" />
      <feGaussianBlur
         in="composite1"
         stdDeviation="1"
         result="blur"
         id="feGaussianBlur1194" />
      <feOffset
         dx="3"
         dy="3"
         result="offset"
         id="feOffset1196" />
      <feComposite
         in="offset"
         in2="SourceGraphic"
         operator="atop"
         result="composite2"
         id="feComposite1198" />
    </filter>
    <filter
       style="color-interpolation-filters:sRGB"
       inkscape:label="Drop Shadow"
       id="filter1214">
      <feFlood
         flood-opacity="0.4"
         flood-color="rgb(0,0,0)"
         result="flood"
         id="feFlood1204" />
      <feComposite
         in="flood"
         in2="SourceGraphic"
         operator="out"
         result="composite1"
         id="feComposite1206" />
      <feGaussianBlur
         in="composite1"
         stdDeviation="1"
         result="blur"
         id="feGaussianBlur1208" />
      <feOffset
         dx="3"
         dy="3"
         result="offset"
         id="feOffset1210" />
      <feComposite
         in="offset"
         in2="SourceGraphic"
         operator="atop"
         result="composite2"
         id="feComposite1212" />
    </filter>
    <filter
       style="color-interpolation-filters:sRGB"
       inkscape:label="Drop Shadow"
       id="filter1228">
      <feFlood
         flood-opacity="0.4"
         flood-color="rgb(0,0,0)"
         result="flood"
         id="feFlood1218" />
      <feComposite
         in="flood"
         in2="SourceGraphic"
         operator="out"
         result="composite1"
         id="feComposite1220" />
      <feGaussianBlur
         in="composite1"
         stdDeviation="1"
         result="blur"
         id="feGaussianBlur1222" />
      <feOffset
         dx="3"
         dy="3"
         result="offset"
         id="feOffset1224" />
      <feComposite
         in="offset"
         in2="SourceGraphic"
         operator="atop"
         result="composite2"
         id="feComposite1226" />
    </filter>
    <filter
       style="color-interpolation-filters:sRGB"
       inkscape:label="Drop Shadow"
       id="filter1257">
      <feFlood
         flood-opacity="0.4"
         flood-color="rgb(0,0,0)"
         result="flood"
         id="feFlood1247" />
      <feComposite
         in="flood"
         in2="SourceGraphic"
         operator="out"
         result="composite1"
         id="feComposite1249" />
      <feGaussianBlur
         in="composite1"
         stdDeviation="1"
         result="blur"
         id="feGaussianBlur1251" />
      <feOffset
         dx="3"
         dy="3"
         result="offset"
         id="feOffset1253" />
      <feComposite
         in="offset"
         in2="SourceGraphic"
         operator="atop"
         result="composite2"
         id="feComposite1255" />
    </filter>
    <filter
       inkscape:collect="always"
       style="color-interpolation-filters:sRGB"
       id="filter1656"
       x="-0.029127273"
       width="1.0582545"
       y="-0.047117647"
       height="1.0942353">
      <feGaussianBlur
         inkscape:collect="always"
         stdDeviation="6.675"
         id="feGaussianBlur1658" />
    </filter>
  </defs>
  <sodipodi:namedview
     id="base"
     pagecolor="#ffffff"
     bordercolor="#666666"
     borderopacity="1.0"
     inkscape:pageopacity="0.0"
     inkscape:pageshadow="2"
     inkscape:zoom="3.5175189"
     inkscape:cx="497.55982"
     inkscape:cy="237.55466"
     inkscape:document-units="mm"
     inkscape:current-layer="layer1"
     showgrid="false"
     inkscape:window-width="1664"
     inkscape:window-height="872"
     inkscape:window-x="0"
     inkscape:window-y="0"
     inkscape:window-maximized="1"
     fit-margin-top="0"
     fit-margin-left="0"
     fit-margin-right="0"
     fit-margin-bottom="0" />
  <metadata
     id="metadata5">
    <rdf:RDF>
      <cc:Work
         rdf:about="">
        <dc:format>image/svg+xml</dc:format>
        <dc:type
           rdf:resource="http://purl.org/dc/dcmitype/StillImage" />
        <dc:title></dc:title>
      </cc:Work>
    </rdf:RDF>
  </metadata>
  <g
     inkscape:label="Layer 1"
     inkscape:groupmode="layer"
     id="layer1"
     transform="translate(-32.127975,-46.779762)">
    <rect
       style="opacity:1;fill:#01579b;fill-opacity:1;stroke:none;stroke-width:1.26499999;stroke-miterlimit:4;stroke-dasharray:none;stroke-opacity:1"
       id="rect815"
       width="145.52083"
       height="89.958336"
       x="32.127975"
       y="46.779762" />
    <path
       style="opacity:1;fill:#676767;fill-opacity:1;stroke:none;stroke-width:4.78110218;stroke-miterlimit:4;stroke-dasharray:none;stroke-opacity:1"
       d="M 117.33984 0 A 250.00001 250.00001 0 0 0 121.6543 24.613281 A 250.00001 250.00001 0 0 0 128.4043 48.673828 A 250.00001 250.00001 0 0 0 137.52148 71.941406 A 250.00001 250.00001 0 0 0 148.91797 94.181641 A 250.00001 250.00001 0 0 0 162.47656 115.17188 A 250.00001 250.00001 0 0 0 178.06445 134.70508 A 250.00001 250.00001 0 0 0 195.52344 152.58398 A 250.00001 250.00001 0 0 0 214.67969 168.63086 A 250.00001 250.00001 0 0 0 235.34375 182.68359 A 250.00001 250.00001 0 0 0 257.30664 194.60547 A 250.00001 250.00001 0 0 0 280.34961 204.27344 A 250.00001 250.00001 0 0 0 304.24219 211.59375 A 250.00001 250.00001 0 0 0 328.74805 216.49219 A 250.00001 250.00001 0 0 0 353.61914 218.91992 A 250.00001 250.00001 0 0 0 365.20703 219.19922 A 250.00001 250.00001 0 0 0 390.16211 217.91211 A 250.00001 250.00001 0 0 0 414.86523 214.14062 A 250.00001 250.00001 0 0 0 439.07031 207.92188 A 250.00001 250.00001 0 0 0 462.53125 199.31836 A 250.00001 250.00001 0 0 0 485.01758 188.41602 A 250.00001 250.00001 0 0 0 506.30078 175.32227 A 250.00001 250.00001 0 0 0 526.17188 160.16797 A 250.00001 250.00001 0 0 0 544.43164 143.10742 A 250.00001 250.00001 0 0 0 550 137.16797 L 550 118.37305 A 217.32283 217.32283 0 0 1 535.91797 134.91406 A 217.32283 217.32283 0 0 1 520.25781 149.96875 A 217.32283 217.32283 0 0 1 503.17188 163.38281 A 217.32283 217.32283 0 0 1 484.83008 175.02539 A 217.32283 217.32283 0 0 1 465.41992 184.77734 A 217.32283 217.32283 0 0 1 445.13281 192.54492 A 217.32283 217.32283 0 0 1 424.17188 198.24609 A 217.32283 217.32283 0 0 1 402.74609 201.82812 A 217.32283 217.32283 0 0 1 381.06836 203.25195 A 217.32283 217.32283 0 0 1 378.01562 203.2793 A 217.32283 217.32283 0 0 1 356.31836 202.1875 A 217.32283 217.32283 0 0 1 334.83984 198.9375 A 217.32283 217.32283 0 0 1 313.79297 193.55859 A 217.32283 217.32283 0 0 1 293.38867 186.10547 A 217.32283 217.32283 0 0 1 273.83008 176.65234 A 217.32283 217.32283 0 0 1 255.3125 165.29492 A 217.32283 217.32283 0 0 1 238.02148 152.14453 A 217.32283 217.32283 0 0 1 222.13086 137.33398 A 217.32283 217.32283 0 0 1 207.79688 121.01172 A 217.32283 217.32283 0 0 1 195.16406 103.33789 A 217.32283 217.32283 0 0 1 184.35938 84.492188 A 217.32283 217.32283 0 0 1 175.49023 64.662109 A 217.32283 217.32283 0 0 1 168.64453 44.046875 A 217.32283 217.32283 0 0 1 163.89062 22.849609 A 217.32283 217.32283 0 0 1 161.27734 1.2851562 A 217.32283 217.32283 0 0 1 161.19141 0 L 117.33984 0 z "
       id="path1330"
       transform="matrix(0.26458333,0,0,0.26458333,32.127975,46.779762)" />
    <path
       style="opacity:1;fill:#676767;fill-opacity:1;stroke:none;stroke-width:4.78110218;stroke-miterlimit:4;stroke-dasharray:none;stroke-opacity:1"
       d="M 550 168.10938 A 340.15748 340.15748 0 0 1 524.7207 190.84766 A 340.15748 340.15748 0 0 1 497.29688 210.94922 A 340.15748 340.15748 0 0 1 468.00391 228.21484 A 340.15748 340.15748 0 0 1 437.13477 242.4668 A 340.15748 340.15748 0 0 1 404.99609 253.56641 A 340.15748 340.15748 0 0 1 371.91016 261.4043 A 340.15748 340.15748 0 0 1 338.20703 265.89844 A 340.15748 340.15748 0 0 1 310.39844 267.05664 A 340.15748 340.15748 0 0 1 276.44141 265.31055 A 340.15748 340.15748 0 0 1 242.82812 260.18359 A 340.15748 340.15748 0 0 1 209.89453 251.72656 A 340.15748 340.15748 0 0 1 177.9707 240.02344 A 340.15748 340.15748 0 0 1 147.375 225.19336 A 340.15748 340.15748 0 0 1 118.41016 207.38086 A 340.15748 340.15748 0 0 1 91.371094 186.76758 A 340.15748 340.15748 0 0 1 66.523438 163.55664 A 340.15748 340.15748 0 0 1 44.119141 137.98242 A 340.15748 340.15748 0 0 1 24.376953 110.29688 A 340.15748 340.15748 0 0 1 7.5 80.78125 A 340.15748 340.15748 0 0 1 0 65.003906 L 0 144.32422 A 385.96664 385.96664 0 0 0 21.976562 176.0332 A 385.96664 385.96664 0 0 0 47.009766 205.38867 A 385.96664 385.96664 0 0 0 74.847656 232.09961 A 385.96664 385.96664 0 0 0 105.21289 255.89844 A 385.96664 385.96664 0 0 0 137.80469 276.54688 A 385.96664 385.96664 0 0 0 172.29297 293.83789 A 385.96664 385.96664 0 0 0 208.33594 307.59961 A 385.96664 385.96664 0 0 0 245.57227 317.69336 A 385.96664 385.96664 0 0 0 283.63086 324.02148 A 385.96664 385.96664 0 0 0 322.13086 326.51562 A 385.96664 385.96664 0 0 0 327.25977 326.55859 A 385.96664 385.96664 0 0 0 365.78906 324.58594 A 385.96664 385.96664 0 0 0 403.92969 318.77734 A 385.96664 385.96664 0 0 0 441.30078 309.18945 A 385.96664 385.96664 0 0 0 477.52734 295.91797 A 385.96664 385.96664 0 0 0 512.24805 279.09766 A 385.96664 385.96664 0 0 0 545.11523 258.89453 A 385.96664 385.96664 0 0 0 550 255.49023 L 550 168.10938 z "
       id="path1337"
       transform="matrix(0.26458333,0,0,0.26458333,32.127975,46.779762)" />
    <path
       style="opacity:1;fill:#4f83cc;fill-opacity:1;stroke:none;stroke-width:4.78110218;stroke-miterlimit:4;stroke-dasharray:none;stroke-opacity:1;"
       d="m 121.42773,241.80859 v 79.32032 A 385.96664,385.96664 0 0 0 448.6875,503.36328 385.96664,385.96664 0 0 0 671.42773,432.29492 V 344.91406 A 340.15748,340.15748 0 0 1 431.82617,443.86133 340.15748,340.15748 0 0 1 121.42773,241.80859 Z"
       transform="scale(0.26458333)"
       id="path1188"
       inkscape:connector-curvature="0" />
    <path
       style="opacity:1;fill:#4f83cc;fill-opacity:1;stroke:none;stroke-width:5.21303988;stroke-miterlimit:4;stroke-dasharray:none;stroke-opacity:1;"
       d="M 238.76758,176.80469 A 250.00001,250.00001 0 0 0 486.63477,396.00391 250.00001,250.00001 0 0 0 671.42773,313.97266 V 295.17773 A 217.32283,217.32283 0 0 1 499.44336,380.08398 217.32283,217.32283 0 0 1 282.61914,176.80469 Z"
       transform="scale(0.26458333)"
       id="path1202"
       inkscape:connector-curvature="0" />
    <path
       style="opacity:1;fill:#01579b;fill-opacity:1;stroke:none;stroke-width:4.78110218;stroke-miterlimit:4;stroke-dasharray:none;stroke-opacity:1"
       d="M 300.69727 0 A 154.96063 154.96063 0 0 0 304.48828 15.017578 A 154.96063 154.96063 0 0 0 309.76172 29.582031 A 154.96063 154.96063 0 0 0 316.46289 43.546875 A 154.96063 154.96063 0 0 0 324.52344 56.773438 A 154.96063 154.96063 0 0 0 333.86523 69.128906 A 154.96063 154.96063 0 0 0 344.39453 80.490234 A 154.96063 154.96063 0 0 0 356.00391 90.744141 A 154.96063 154.96063 0 0 0 368.58008 99.787109 A 154.96063 154.96063 0 0 0 381.99609 107.5293 A 154.96063 154.96063 0 0 0 396.11719 113.89453 A 154.96063 154.96063 0 0 0 410.80469 118.81641 A 154.96063 154.96063 0 0 0 425.9082 122.24805 A 154.96063 154.96063 0 0 0 441.28125 124.15625 A 154.96063 154.96063 0 0 0 452.63086 124.57422 A 154.96063 154.96063 0 0 0 468.09961 123.7793 A 154.96063 154.96063 0 0 0 483.41211 121.44531 A 154.96063 154.96063 0 0 0 498.41602 117.59375 A 154.96063 154.96063 0 0 0 512.95898 112.26562 A 154.96063 154.96063 0 0 0 526.89844 105.50977 A 154.96063 154.96063 0 0 0 540.09375 97.396484 A 154.96063 154.96063 0 0 0 550 90.003906 L 550 33.019531 A 117.16535 117.16535 0 0 1 544.34961 43.277344 A 117.16535 117.16535 0 0 1 537.70312 52.919922 A 117.16535 117.16535 0 0 1 530.12695 61.851562 A 117.16535 117.16535 0 0 1 521.69727 69.982422 A 117.16535 117.16535 0 0 1 512.49805 77.230469 A 117.16535 117.16535 0 0 1 502.62305 83.525391 A 117.16535 117.16535 0 0 1 492.16602 88.800781 A 117.16535 117.16535 0 0 1 481.23633 93.007812 A 117.16535 117.16535 0 0 1 469.94141 96.101562 A 117.16535 117.16535 0 0 1 458.39258 98.052734 A 117.16535 117.16535 0 0 1 446.70703 98.841797 A 117.16535 117.16535 0 0 1 444.83594 98.859375 A 117.16535 117.16535 0 0 1 433.13867 98.265625 A 117.16535 117.16535 0 0 1 421.55859 96.509766 A 117.16535 117.16535 0 0 1 410.21289 93.605469 A 117.16535 117.16535 0 0 1 399.21484 89.582031 A 117.16535 117.16535 0 0 1 388.67188 84.482422 A 117.16535 117.16535 0 0 1 378.69141 78.353516 A 117.16535 117.16535 0 0 1 369.37109 71.261719 A 117.16535 117.16535 0 0 1 360.80664 63.273438 A 117.16535 117.16535 0 0 1 353.08203 54.46875 A 117.16535 117.16535 0 0 1 346.27539 44.939453 A 117.16535 117.16535 0 0 1 340.45508 34.777344 A 117.16535 117.16535 0 0 1 335.67773 24.083984 A 117.16535 117.16535 0 0 1 331.99023 12.966797 A 117.16535 117.16535 0 0 1 329.43359 1.5390625 A 117.16535 117.16535 0 0 1 329.17969 0 L 300.69727 0 z "
       id="path1318"
       transform="matrix(0.26458333,0,0,0.26458333,32.127975,46.779762)" />
    <path
       style="opacity:1;fill:#4f83cc;fill-opacity:1;stroke:none;stroke-width:4.74707413;stroke-miterlimit:4;stroke-dasharray:none;stroke-opacity:1;"
       d="m 422.125,176.80469 a 154.96063,154.96063 0 0 0 151.93359,124.57422 154.96063,154.96063 0 0 0 97.36914,-34.57032 V 209.82422 A 117.16535,117.16535 0 0 1 566.26367,275.66406 117.16535,117.16535 0 0 1 450.60742,176.80469 Z"
       id="path1245"
       inkscape:connector-curvature="0"
       transform="scale(0.26458333)" />
    <path
       style="opacity:0.2;fill:#000000;fill-opacity:1;stroke:none;stroke-width:4.78110218;stroke-miterlimit:4;stroke-dasharray:none;stroke-opacity:1;filter:url(#filter1656)"
       d="M 0 0 L 0 65.003906 A 340.15748 340.15748 0 0 0 7.5 80.78125 A 340.15748 340.15748 0 0 0 24.376953 110.29688 A 340.15748 340.15748 0 0 0 44.119141 137.98242 A 340.15748 340.15748 0 0 0 66.523438 163.55664 A 340.15748 340.15748 0 0 0 91.371094 186.76758 A 340.15748 340.15748 0 0 0 118.41016 207.38086 A 340.15748 340.15748 0 0 0 147.375 225.19336 A 340.15748 340.15748 0 0 0 177.9707 240.02344 A 340.15748 340.15748 0 0 0 209.89453 251.72656 A 340.15748 340.15748 0 0 0 242.82812 260.18359 A 340.15748 340.15748 0 0 0 276.44141 265.31055 A 340.15748 340.15748 0 0 0 310.39844 267.05664 A 340.15748 340.15748 0 0 0 338.20703 265.89844 A 340.15748 340.15748 0 0 0 371.91016 261.4043 A 340.15748 340.15748 0 0 0 404.99609 253.56641 A 340.15748 340.15748 0 0 0 437.13477 242.4668 A 340.15748 340.15748 0 0 0 468.00391 228.21484 A 340.15748 340.15748 0 0 0 497.29688 210.94922 A 340.15748 340.15748 0 0 0 524.7207 190.84766 A 340.15748 340.15748 0 0 0 550 168.10938 L 550 137.16797 A 250.00001 250.00001 0 0 1 544.43164 143.10742 A 250.00001 250.00001 0 0 1 526.17188 160.16797 A 250.00001 250.00001 0 0 1 506.30078 175.32227 A 250.00001 250.00001 0 0 1 485.01758 188.41602 A 250.00001 250.00001 0 0 1 462.53125 199.31836 A 250.00001 250.00001 0 0 1 439.07031 207.92188 A 250.00001 250.00001 0 0 1 414.86523 214.14062 A 250.00001 250.00001 0 0 1 390.16211 217.91211 A 250.00001 250.00001 0 0 1 365.20703 219.19922 A 250.00001 250.00001 0 0 1 353.61914 218.91992 A 250.00001 250.00001 0 0 1 328.74805 216.49219 A 250.00001 250.00001 0 0 1 304.24219 211.59375 A 250.00001 250.00001 0 0 1 280.34961 204.27344 A 250.00001 250.00001 0 0 1 257.30664 194.60547 A 250.00001 250.00001 0 0 1 235.34375 182.68359 A 250.00001 250.00001 0 0 1 214.67969 168.63086 A 250.00001 250.00001 0 0 1 195.52344 152.58398 A 250.00001 250.00001 0 0 1 178.06445 134.70508 A 250.00001 250.00001 0 0 1 162.47656 115.17188 A 250.00001 250.00001 0 0 1 148.91797 94.181641 A 250.00001 250.00001 0 0 1 137.52148 71.941406 A 250.00001 250.00001 0 0 1 128.4043 48.673828 A 250.00001 250.00001 0 0 1 121.6543 24.613281 A 250.00001 250.00001 0 0 1 117.33984 0 L 0 0 z M 161.19141 0 A 217.32283 217.32283 0 0 0 161.27734 1.2851562 A 217.32283 217.32283 0 0 0 163.89062 22.849609 A 217.32283 217.32283 0 0 0 168.64453 44.046875 A 217.32283 217.32283 0 0 0 175.49023 64.662109 A 217.32283 217.32283 0 0 0 184.35938 84.492188 A 217.32283 217.32283 0 0 0 195.16406 103.33789 A 217.32283 217.32283 0 0 0 207.79688 121.01172 A 217.32283 217.32283 0 0 0 222.13086 137.33398 A 217.32283 217.32283 0 0 0 238.02148 152.14453 A 217.32283 217.32283 0 0 0 255.3125 165.29492 A 217.32283 217.32283 0 0 0 273.83008 176.65234 A 217.32283 217.32283 0 0 0 293.38867 186.10547 A 217.32283 217.32283 0 0 0 313.79297 193.55859 A 217.32283 217.32283 0 0 0 334.83984 198.9375 A 217.32283 217.32283 0 0 0 356.31836 202.1875 A 217.32283 217.32283 0 0 0 378.01562 203.2793 A 217.32283 217.32283 0 0 0 381.06836 203.25195 A 217.32283 217.32283 0 0 0 402.74609 201.82812 A 217.32283 217.32283 0 0 0 424.17188 198.24609 A 217.32283 217.32283 0 0 0 445.13281 192.54492 A 217.32283 217.32283 0 0 0 465.41992 184.77734 A 217.32283 217.32283 0 0 0 484.83008 175.02539 A 217.32283 217.32283 0 0 0 503.17188 163.38281 A 217.32283 217.32283 0 0 0 520.25781 149.96875 A 217.32283 217.32283 0 0 0 535.91797 134.91406 A 217.32283 217.32283 0 0 0 550 118.37305 L 550 90.003906 A 154.96063 154.96063 0 0 1 540.09375 97.396484 A 154.96063 154.96063 0 0 1 526.89844 105.50977 A 154.96063 154.96063 0 0 1 512.95898 112.26562 A 154.96063 154.96063 0 0 1 498.41602 117.59375 A 154.96063 154.96063 0 0 1 483.41211 121.44531 A 154.96063 154.96063 0 0 1 468.09961 123.7793 A 154.96063 154.96063 0 0 1 452.63086 124.57422 A 154.96063 154.96063 0 0 1 441.28125 124.15625 A 154.96063 154.96063 0 0 1 425.9082 122.24805 A 154.96063 154.96063 0 0 1 410.80469 118.81641 A 154.96063 154.96063 0 0 1 396.11719 113.89453 A 154.96063 154.96063 0 0 1 381.99609 107.5293 A 154.96063 154.96063 0 0 1 368.58008 99.787109 A 154.96063 154.96063 0 0 1 356.00391 90.744141 A 154.96063 154.96063 0 0 1 344.39453 80.490234 A 154.96063 154.96063 0 0 1 333.86523 69.128906 A 154.96063 154.96063 0 0 1 324.52344 56.773438 A 154.96063 154.96063 0 0 1 316.46289 43.546875 A 154.96063 154.96063 0 0 1 309.76172 29.582031 A 154.96063 154.96063 0 0 1 304.48828 15.017578 A 154.96063 154.96063 0 0 1 300.69727 0 L 161.19141 0 z M 329.17969 0 A 117.16535 117.16535 0 0 0 329.43359 1.5390625 A 117.16535 117.16535 0 0 0 331.99023 12.966797 A 117.16535 117.16535 0 0 0 335.67773 24.083984 A 117.16535 117.16535 0 0 0 340.45508 34.777344 A 117.16535 117.16535 0 0 0 346.27539 44.939453 A 117.16535 117.16535 0 0 0 353.08203 54.46875 A 117.16535 117.16535 0 0 0 360.80664 63.273438 A 117.16535 117.16535 0 0 0 369.37109 71.261719 A 117.16535 117.16535 0 0 0 378.69141 78.353516 A 117.16535 117.16535 0 0 0 388.67188 84.482422 A 117.16535 117.16535 0 0 0 399.21484 89.582031 A 117.16535 117.16535 0 0 0 410.21289 93.605469 A 117.16535 117.16535 0 0 0 421.55859 96.509766 A 117.16535 117.16535 0 0 0 433.13867 98.265625 A 117.16535 117.16535 0 0 0 444.83594 98.859375 A 117.16535 117.16535 0 0 0 446.70703 98.841797 A 117.16535 117.16535 0 0 0 458.39258 98.052734 A 117.16535 117.16535 0 0 0 469.94141 96.101562 A 117.16535 117.16535 0 0 0 481.23633 93.007812 A 117.16535 117.16535 0 0 0 492.16602 88.800781 A 117.16535 117.16535 0 0 0 502.62305 83.525391 A 117.16535 117.16535 0 0 0 512.49805 77.230469 A 117.16535 117.16535 0 0 0 521.69727 69.982422 A 117.16535 117.16535 0 0 0 530.12695 61.851562 A 117.16535 117.16535 0 0 0 537.70312 52.919922 A 117.16535 117.16535 0 0 0 544.34961 43.277344 A 117.16535 117.16535 0 0 0 550 33.019531 L 550 0 L 329.17969 0 z M 0 144.32422 L 0 340 L 550 340 L 550 255.49023 A 385.96664 385.96664 0 0 1 545.11523 258.89453 A 385.96664 385.96664 0 0 1 512.24805 279.09766 A 385.96664 385.96664 0 0 1 477.52734 295.91797 A 385.96664 385.96664 0 0 1 441.30078 309.18945 A 385.96664 385.96664 0 0 1 403.92969 318.77734 A 385.96664 385.96664 0 0 1 365.78906 324.58594 A 385.96664 385.96664 0 0 1 327.25977 326.55859 A 385.96664 385.96664 0 0 1 322.13086 326.51562 A 385.96664 385.96664 0 0 1 283.63086 324.02148 A 385.96664 385.96664 0 0 1 245.57227 317.69336 A 385.96664 385.96664 0 0 1 208.33594 307.59961 A 385.96664 385.96664 0 0 1 172.29297 293.83789 A 385.96664 385.96664 0 0 1 137.80469 276.54688 A 385.96664 385.96664 0 0 1 105.21289 255.89844 A 385.96664 385.96664 0 0 1 74.847656 232.09961 A 385.96664 385.96664 0 0 1 47.009766 205.38867 A 385.96664 385.96664 0 0 1 21.976562 176.0332 A 385.96664 385.96664 0 0 1 0 144.32422 z "
       id="path1332"
       transform="matrix(0.26458333,0,0,0.26458333,32.127975,46.779762)" />
    <path
       id="path1354"
       d="m 30.011307,46.250595 v 17.19895 a 89.999999,89.999999 0 0 0 1.984375,4.174422 89.999999,89.999999 0 0 0 4.46536,7.809344 89.999999,89.999999 0 0 0 5.223454,7.325132 89.999999,89.999999 0 0 0 5.927804,6.766513 89.999999,89.999999 0 0 0 6.574275,6.141228 89.999999,89.999999 0 0 0 7.154086,5.453926 89.999999,89.999999 0 0 0 7.663614,4.71289 89.999999,89.999999 0 0 0 8.095112,3.9238 89.999999,89.999999 0 0 0 8.446514,3.09645 89.999999,89.999999 0 0 0 8.713679,2.23759 89.999999,89.999999 0 0 0 8.8935,1.3565 89.999999,89.999999 0 0 0 8.98447,0.46199 89.999999,89.999999 0 0 0 7.35769,-0.30644 89.999999,89.999999 0 0 0 8.91728,-1.18907 89.999999,89.999999 0 0 0 8.75399,-2.07378 89.999999,89.999999 0 0 0 8.50336,-2.93677 89.999999,89.999999 0 0 0 8.16746,-3.77083 89.999999,89.999999 0 0 0 7.75043,-4.5682 89.999999,89.999999 0 0 0 7.25589,-5.318535 89.999999,89.999999 0 0 0 6.68848,-6.01617 v -8.186581 a 66.145835,66.145835 0 0 1 -1.4733,1.571479 66.145835,66.145835 0 0 1 -4.83123,4.513937 66.145835,66.145835 0 0 1 -5.25756,4.009575 66.145835,66.145835 0 0 1 -5.63118,3.464388 66.145835,66.145835 0 0 1 -5.94951,2.884578 66.145835,66.145835 0 0 1 -6.20737,2.276349 66.145835,66.145835 0 0 1 -6.40426,1.64537 66.145835,66.145835 0 0 1 -6.53603,0.99788 66.145835,66.145835 0 0 1 -6.6027,0.34054 66.145835,66.145835 0 0 1 -3.06597,-0.0739 66.145835,66.145835 0 0 1 -6.58047,-0.64234 66.145835,66.145835 0 0 1 -6.48384,-1.29605 66.145835,66.145835 0 0 1 -6.32158,-1.93683 A 66.145835,66.145835 0 0 1 98.090352,97.739949 66.145835,66.145835 0 0 1 92.27934,94.585618 66.145835,66.145835 0 0 1 86.811974,90.8675 66.145835,66.145835 0 0 1 81.74355,86.621763 66.145835,66.145835 0 0 1 77.124192,81.891304 66.145835,66.145835 0 0 1 72.999896,76.723145 66.145835,66.145835 0 0 1 69.412519,71.169478 66.145835,66.145835 0 0 1 66.397198,65.285082 66.145835,66.145835 0 0 1 63.984944,59.128869 66.145835,66.145835 0 0 1 62.199007,52.762849 66.145835,66.145835 0 0 1 61.057473,46.250585 Z m 42.64856,0 a 57.499998,57.499998 0 0 0 0.02274,0.340031 57.499998,57.499998 0 0 0 0.69143,5.705595 57.499998,57.499998 0 0 0 1.257805,5.608443 57.499998,57.499998 0 0 0 1.811258,5.454447 57.499998,57.499998 0 0 0 2.34663,5.246709 57.499998,57.499998 0 0 0 2.858738,4.986258 57.499998,57.499998 0 0 0 3.342433,4.676201 57.499998,57.499998 0 0 0 3.792533,4.318598 57.499998,57.499998 0 0 0 4.204393,3.918625 57.499998,57.499998 0 0 0 4.574918,3.479374 57.499998,57.499998 0 0 0 4.899425,3.004984 57.499998,57.499998 0 0 0 5.17488,2.50114 57.499998,57.499998 0 0 0 5.39863,1.971972 57.499998,57.499998 0 0 0 5.56865,1.42317 57.499998,57.499998 0 0 0 5.68286,0.859891 57.499998,57.499998 0 0 0 5.74074,0.288877 57.499998,57.499998 0 0 0 0.8077,-0.007 57.499998,57.499998 0 0 0 5.73557,-0.376717 57.499998,57.499998 0 0 0 5.6689,-0.947747 57.499998,57.499998 0 0 0 5.54592,-1.508435 57.499998,57.499998 0 0 0 5.36763,-2.055172 57.499998,57.499998 0 0 0 5.1356,-2.580203 57.499998,57.499998 0 0 0 4.85294,-3.080433 57.499998,57.499998 0 0 0 4.52065,-3.549136 57.499998,57.499998 0 0 0 4.14342,-3.98322 57.499998,57.499998 0 0 0 3.72587,-4.376476 v -7.506003 a 41,41 0 0 1 -2.62103,1.955953 41,41 0 0 1 -3.49126,2.146641 41,41 0 0 1 -3.68815,1.787485 41,41 0 0 1 -3.84782,1.409734 41,41 0 0 1 -3.96979,1.019059 41,41 0 0 1 -4.05143,0.617535 41,41 0 0 1 -4.09277,0.210322 41,41 0 0 1 -3.00292,-0.110588 41,41 0 0 1 -4.06746,-0.504878 41,41 0 0 1 -3.99613,-0.907954 41,41 0 0 1 -3.88607,-1.302248 41,41 0 0 1 -3.73621,-1.684133 41,41 0 0 1 -3.54965,-2.048455 41,41 0 0 1 -3.32744,-2.392619 41,41 0 0 1 -3.07165,-2.713013 41,41 0 0 1 -2.78588,-3.006018 41,41 0 0 1 -2.47168,-3.26905 41,41 0 0 1 -2.13269,-3.499528 41,41 0 0 1 -1.77302,-3.694865 41,41 0 0 1 -1.39526,-3.853512 41,41 0 0 1 -1.00304,-3.973401 z m 44.446883,0 a 30.999998,30.999998 0 0 0 0.0672,0.407211 30.999998,30.999998 0 0 0 0.67645,3.023588 30.999998,30.999998 0 0 0 0.97565,2.941422 30.999998,30.999998 0 0 0 1.264,2.829285 30.999998,30.999998 0 0 0 1.53996,2.688724 30.999998,30.999998 0 0 0 1.80092,2.521294 30.999998,30.999998 0 0 0 2.04381,2.329573 30.999998,30.999998 0 0 0 2.26601,2.113566 30.999998,30.999998 0 0 0 2.466,1.876372 30.999998,30.999998 0 0 0 2.64067,1.621606 30.999998,30.999998 0 0 0 2.78949,1.349271 30.999998,30.999998 0 0 0 2.9099,1.064535 30.999998,30.999998 0 0 0 3.00188,0.768429 30.999998,30.999998 0 0 0 3.0639,0.464571 30.999998,30.999998 0 0 0 3.0949,0.157096 30.999998,30.999998 0 0 0 0.49506,-0.0047 30.999998,30.999998 0 0 0 3.0918,-0.208773 30.999998,30.999998 0 0 0 3.05563,-0.516247 30.999998,30.999998 0 0 0 2.98845,-0.818555 30.999998,30.999998 0 0 0 2.89181,-1.11311 30.999998,30.999998 0 0 0 2.76676,-1.395781 30.999998,30.999998 0 0 0 2.61276,-1.665531 30.999998,30.999998 0 0 0 2.43396,-1.917712 30.999998,30.999998 0 0 0 2.23035,-2.15129 30.999998,30.999998 0 0 0 2.00453,-2.363163 30.999998,30.999998 0 0 0 1.75855,-2.551266 30.999998,30.999998 0 0 0 1.495,-2.714046 V 46.250595 Z M 30.011307,84.436378 V 136.20893 H 175.53213 v -22.35988 a 102.12034,102.12034 0 0 1 -1.29243,0.90072 102.12034,102.12034 0 0 1 -8.69611,5.34541 102.12034,102.12034 0 0 1 -9.18652,4.45038 102.12034,102.12034 0 0 1 -9.58495,3.51141 102.12034,102.12034 0 0 1 -9.88776,2.5368 102.12034,102.12034 0 0 1 -10.09138,1.53685 102.12034,102.12034 0 0 1 -10.19421,0.52193 102.12034,102.12034 0 0 1 -1.35702,-0.0114 102.12034,102.12034 0 0 1 -10.18646,-0.65991 102.12034,102.12034 0 0 1 -10.069654,-1.67432 102.12034,102.12034 0 0 1 -9.852112,-2.67064 102.12034,102.12034 0 0 1 -9.536369,-3.64112 102.12034,102.12034 0 0 1 -9.125024,-4.57491 102.12034,102.12034 0 0 1 -8.623247,-5.46323 102.12034,102.12034 0 0 1 -8.034135,-6.29678 102.12034,102.12034 0 0 1 -7.365442,-7.06727 102.12034,102.12034 0 0 1 -6.623368,-7.766964 102.12034,102.12034 0 0 1 -5.814632,-8.389668 z"
       style="opacity:1;fill:#01579b;fill-opacity:1;stroke:none;stroke-width:1.26499999;stroke-miterlimit:4;stroke-dasharray:none;stroke-opacity:1"
       inkscape:connector-curvature="0" />
    <rect
       style="opacity:0.2;fill:#000000;fill-opacity:1;stroke:none;stroke-width:1.26499999;stroke-miterlimit:4;stroke-dasharray:none;stroke-opacity:1"
       id="rect1664"
       width="143.40414"
       height="89.429169"
       x="32.127975"
       y="46.779762"
       mask="none"
       clip-path="none" />
  </g>
</svg>
