<?xml version="1.0" encoding="UTF-8" standalone="no"?>
<!-- Created with Inkscape (http://www.inkscape.org/) -->

<svg
   xmlns:dc="http://purl.org/dc/elements/1.1/"
   xmlns:cc="http://creativecommons.org/ns#"
   xmlns:rdf="http://www.w3.org/1999/02/22-rdf-syntax-ns#"
   xmlns:svg="http://www.w3.org/2000/svg"
   xmlns="http://www.w3.org/2000/svg"
   xmlns:sodipodi="http://sodipodi.sourceforge.net/DTD/sodipodi-0.dtd"
   xmlns:inkscape="http://www.inkscape.org/namespaces/inkscape"
   width="1058.5979mm"
   height="1058.5979mm"
   viewBox="0 0 1058.5979 1058.5979"
   version="1.1"
   id="svg1129"
   inkscape:export-filename="/home/mike/bitmap.png"
   inkscape:export-xdpi="96"
   inkscape:export-ydpi="96"
   sodipodi:docname="picnic-resized-blue.svg"
   inkscape:version="0.92.3 (2405546, 2018-03-11)">
  <defs
     id="defs1123" />
  <sodipodi:namedview
     id="base"
     pagecolor="#ffffff"
     bordercolor="#666666"
     borderopacity="1.0"
     inkscape:pageopacity="0.0"
     inkscape:pageshadow="2"
     inkscape:zoom="0.175"
     inkscape:cx="-740.9355"
     inkscape:cy="2520.2479"
     inkscape:document-units="mm"
     inkscape:current-layer="layer1"
     showgrid="true"
     showguides="true"
     inkscape:guide-bbox="true"
     inkscape:window-width="1664"
     inkscape:window-height="872"
     inkscape:window-x="0"
     inkscape:window-y="0"
     inkscape:window-maximized="1"
     fit-margin-top="0"
     fit-margin-left="0"
     fit-margin-right="0"
     fit-margin-bottom="0">
    <inkscape:grid
       type="xygrid"
       id="grid1135"
       spacingx="26.458333"
       spacingy="26.458333"
       originx="-317.3677"
       originy="2672.4238" />
  </sodipodi:namedview>
  <metadata
     id="metadata1126">
    <rdf:RDF>
      <cc:Work
         rdf:about="">
        <dc:format>image/svg+xml</dc:format>
        <dc:type
           rdf:resource="http://purl.org/dc/dcmitype/StillImage" />
        <dc:title></dc:title>
      </cc:Work>
    </rdf:RDF>
  </metadata>
  <g
     inkscape:label="Layer 1"
     inkscape:groupmode="layer"
     id="layer1"
     transform="translate(-54.139292,-104.43261)">
    <path
       style="fill:#ffffff;stroke:#000000;stroke-width:0.26458332px;stroke-linecap:butt;stroke-linejoin:miter;stroke-opacity:1"
       d="M 54.271584,104.5649 V 1162.8982 H 1112.6049 V 104.5649 Z"
       id="path18664"
       inkscape:connector-curvature="0" />
    <path
       d="M 159.95278,1162.7751 54.119381,1056.9417 v 52.9167 l 52.916699,52.9167 z m 0,-105.8334 v 52.9167 l -52.9167,-52.9167 z m 105.83331,105.8334 -105.83331,-105.8334 v 52.9167 l 52.9167,52.9167 z m 0,-105.8334 v 52.9167 l -52.91661,-52.9167 z m 105.83333,105.8334 -105.83333,-105.8334 v 52.9167 l 52.91667,52.9167 z m 0,-105.8334 v 52.9167 l -52.91666,-52.9167 z m 105.83332,105.8334 -105.83333,-105.8334 v 52.9167 l 52.91667,52.9167 z m 0,-105.8334 v 52.9167 l -52.91666,-52.9167 z m 105.83333,105.8334 -105.83333,-105.8334 v 52.9167 l 52.91667,52.9167 z m 0,-105.8334 v 52.9167 l -52.91666,-52.9167 z M 689.1194,1162.7751 583.28607,1056.9417 v 52.9167 l 52.91667,52.9167 z m 0,-105.8334 v 52.9167 l -52.91666,-52.9167 z M 794.95273,1162.7751 689.1194,1056.9417 v 52.9167 l 52.91667,52.9167 z m 0,-105.8334 v 52.9167 l -52.91666,-52.9167 z m 105.83332,105.8334 -105.83333,-105.8334 v 52.9167 l 52.91667,52.9167 z m 0,-105.8334 v 52.9167 l -52.91666,-52.9167 z m 105.83335,105.8334 -105.83335,-105.8334 v 52.9167 l 52.91667,52.9167 z m 0,-105.8334 v 52.9167 l -52.91668,-52.9167 z m 105.8333,105.8334 -105.8333,-105.8334 v 52.9167 l 52.9166,52.9167 z m 0,-105.8334 v 52.9167 l -52.9167,-52.9167 z m -952.49992,0 L 54.119381,951.10841 v 52.91669 l 52.916699,52.9166 z m 0,-105.83329 v 52.91669 l -52.9167,-52.91669 z M 265.78609,1056.9417 159.95278,951.10841 v 52.91669 l 52.9167,52.9166 z m 0,-105.83329 v 52.91669 L 212.86948,951.10841 Z M 371.61942,1056.9417 265.78609,951.10841 v 52.91669 l 52.91667,52.9166 z m 0,-105.83329 v 52.91669 L 318.70276,951.10841 Z M 477.45274,1056.9417 371.61941,951.10841 v 52.91669 l 52.91667,52.9166 z m 0,-105.83329 v 52.91669 L 424.53608,951.10841 Z M 583.28607,1056.9417 477.45274,951.10841 v 52.91669 l 52.91667,52.9166 z m 0,-105.83329 v 52.91669 L 530.36941,951.10841 Z M 689.1194,1056.9417 583.28607,951.10841 v 52.91669 l 52.91667,52.9166 z m 0,-105.83329 v 52.91669 L 636.20274,951.10841 Z M 794.95273,1056.9417 689.1194,951.10841 v 52.91669 l 52.91667,52.9166 z m 0,-105.83329 v 52.91669 L 742.03607,951.10841 Z M 900.78605,1056.9417 794.95272,951.10841 v 52.91669 l 52.91667,52.9166 z m 0,-105.83329 v 52.91669 L 847.86939,951.10841 Z M 1006.6194,1056.9417 900.78605,951.10841 v 52.91669 l 52.91667,52.9166 z m 0,-105.83329 v 52.91669 l -52.91668,-52.91669 z m 105.8333,105.83329 -105.8333,-105.83329 v 52.91669 l 52.9166,52.9166 z m 0,-105.83329 v 52.91669 l -52.9167,-52.91669 z m -952.49992,0 L 54.119381,845.27508 v 52.91666 l 52.916699,52.91667 z m 0,-105.83333 v 52.91666 l -52.9167,-52.91666 z M 265.78609,951.10841 159.95278,845.27508 v 52.91666 l 52.9167,52.91667 z m 0,-105.83333 v 52.91666 L 212.86948,845.27508 Z M 371.61942,951.10841 265.78609,845.27508 v 52.91666 l 52.91667,52.91667 z m 0,-105.83333 v 52.91666 L 318.70276,845.27508 Z M 477.45274,951.10841 371.61941,845.27508 v 52.91666 l 52.91667,52.91667 z m 0,-105.83333 v 52.91666 L 424.53608,845.27508 Z M 583.28607,951.10841 477.45274,845.27508 v 52.91666 l 52.91667,52.91667 z m 0,-105.83333 v 52.91666 L 530.36941,845.27508 Z M 689.1194,951.10841 583.28607,845.27508 v 52.91666 l 52.91667,52.91667 z m 0,-105.83333 v 52.91666 L 636.20274,845.27508 Z M 794.95273,951.10841 689.1194,845.27508 v 52.91666 l 52.91667,52.91667 z m 0,-105.83333 v 52.91666 L 742.03607,845.27508 Z M 900.78605,951.10841 794.95272,845.27508 v 52.91666 l 52.91667,52.91667 z m 0,-105.83333 v 52.91666 L 847.86939,845.27508 Z M 1006.6194,951.10841 900.78605,845.27508 v 52.91666 l 52.91667,52.91667 z m 0,-105.83333 v 52.91666 l -52.91668,-52.91666 z m 105.8333,105.83333 -105.8333,-105.83333 v 52.91666 l 52.9166,52.91667 z m 0,-105.83333 v 52.91666 l -52.9167,-52.91666 z m -952.49992,0 L 54.119381,739.44175 v 52.91666 l 52.916699,52.91667 z m 0,-105.83333 v 52.91666 l -52.9167,-52.91666 z M 265.78609,845.27508 159.95278,739.44175 v 52.91666 l 52.9167,52.91667 z m 0,-105.83333 v 52.91666 L 212.86948,739.44175 Z M 371.61942,845.27508 265.78609,739.44175 v 52.91666 l 52.91667,52.91667 z m 0,-105.83333 v 52.91666 L 318.70276,739.44175 Z M 477.45274,845.27508 371.61941,739.44175 v 52.91666 l 52.91667,52.91667 z m 0,-105.83333 v 52.91666 L 424.53608,739.44175 Z M 583.28607,845.27508 477.45274,739.44175 v 52.91666 l 52.91667,52.91667 z m 0,-105.83333 v 52.91666 L 530.36941,739.44175 Z M 689.1194,845.27508 583.28607,739.44175 v 52.91666 l 52.91667,52.91667 z m 0,-105.83333 v 52.91666 L 636.20274,739.44175 Z M 794.95273,845.27508 689.1194,739.44175 v 52.91666 l 52.91667,52.91667 z m 0,-105.83333 v 52.91666 L 742.03607,739.44175 Z M 900.78605,845.27508 794.95272,739.44175 v 52.91666 l 52.91667,52.91667 z m 0,-105.83333 v 52.91666 L 847.86939,739.44175 Z M 1006.6194,845.27508 900.78605,739.44175 v 52.91666 l 52.91667,52.91667 z m 0,-105.83333 v 52.91666 l -52.91668,-52.91666 z m 105.8333,105.83333 -105.8333,-105.83333 v 52.91666 l 52.9166,52.91667 z m 0,-105.83333 v 52.91666 l -52.9167,-52.91666 z m -952.49992,0 L 54.119381,633.60842 v 52.91666 l 52.916699,52.91667 z m 0,-105.83333 v 52.91666 l -52.9167,-52.91666 z M 265.78609,739.44175 159.95278,633.60842 v 52.91666 l 52.9167,52.91667 z m 0,-105.83333 v 52.91666 L 212.86948,633.60842 Z M 371.61942,739.44175 265.78609,633.60842 v 52.91666 l 52.91667,52.91667 z m 0,-105.83333 v 52.91666 L 318.70276,633.60842 Z M 477.45274,739.44175 371.61941,633.60842 v 52.91666 l 52.91667,52.91667 z m 0,-105.83333 v 52.91666 L 424.53608,633.60842 Z M 583.28607,739.44175 477.45274,633.60842 v 52.91666 l 52.91667,52.91667 z m 0,-105.83333 v 52.91666 L 530.36941,633.60842 Z M 689.1194,739.44175 583.28607,633.60842 v 52.91666 l 52.91667,52.91667 z m 0,-105.83333 v 52.91666 L 636.20274,633.60842 Z M 794.95273,739.44175 689.1194,633.60842 v 52.91666 l 52.91667,52.91667 z m 0,-105.83333 v 52.91666 L 742.03607,633.60842 Z M 900.78605,739.44175 794.95272,633.60842 v 52.91666 l 52.91667,52.91667 z m 0,-105.83333 v 52.91666 L 847.86939,633.60842 Z M 1006.6194,739.44175 900.78605,633.60842 v 52.91666 l 52.91667,52.91667 z m 0,-105.83333 v 52.91666 l -52.91668,-52.91666 z m 105.8333,105.83333 -105.8333,-105.83333 v 52.91666 l 52.9166,52.91667 z m 0,-105.83333 v 52.91666 l -52.9167,-52.91666 z m -952.49992,0 L 54.119381,527.77509 v 52.91666 l 52.916699,52.91667 z m 0,-105.83333 v 52.91666 l -52.9167,-52.91666 z M 265.78609,633.60842 159.95278,527.77509 v 52.91666 l 52.9167,52.91667 z m 0,-105.83333 v 52.91666 L 212.86948,527.77509 Z M 371.61942,633.60842 265.78609,527.77509 v 52.91666 l 52.91667,52.91667 z m 0,-105.83333 v 52.91666 L 318.70276,527.77509 Z M 477.45274,633.60842 371.61941,527.77509 v 52.91666 l 52.91667,52.91667 z m 0,-105.83333 v 52.91666 L 424.53608,527.77509 Z M 583.28607,633.60842 477.45274,527.77509 v 52.91666 l 52.91667,52.91667 z m 0,-105.83333 v 52.91666 L 530.36941,527.77509 Z M 689.1194,633.60842 583.28607,527.77509 v 52.91666 l 52.91667,52.91667 z m 0,-105.83333 v 52.91666 L 636.20274,527.77509 Z M 794.95273,633.60842 689.1194,527.77509 v 52.91666 l 52.91667,52.91667 z m 0,-105.83333 v 52.91666 L 742.03607,527.77509 Z M 900.78605,633.60842 794.95272,527.77509 v 52.91666 l 52.91667,52.91667 z m 0,-105.83333 v 52.91666 L 847.86939,527.77509 Z M 1006.6194,633.60842 900.78605,527.77509 v 52.91666 l 52.91667,52.91667 z m 0,-105.83333 v 52.91666 l -52.91668,-52.91666 z m 105.8333,105.83333 -105.8333,-105.83333 v 52.91666 l 52.9166,52.91667 z m 0,-105.83333 v 52.91666 L 1059.536,527.77509 Z M 159.95278,527.77508 54.119381,421.94175 v 52.91666 l 52.916699,52.91667 z m 0,-105.83333 v 52.91666 l -52.9167,-52.91666 z M 265.78609,527.77508 159.95278,421.94175 v 52.91666 l 52.9167,52.91667 z m 0,-105.83333 v 52.91666 L 212.86948,421.94175 Z M 371.61942,527.77508 265.78609,421.94175 v 52.91666 l 52.91667,52.91667 z m 0,-105.83333 v 52.91666 L 318.70276,421.94175 Z M 477.45274,527.77508 371.61941,421.94175 v 52.91666 l 52.91667,52.91667 z m 0,-105.83333 v 52.91666 L 424.53608,421.94175 Z M 583.28607,527.77508 477.45274,421.94175 v 52.91666 l 52.91667,52.91667 z m 0,-105.83333 v 52.91666 L 530.36941,421.94175 Z M 689.1194,527.77508 583.28607,421.94175 v 52.91666 l 52.91667,52.91667 z m 0,-105.83333 v 52.91666 L 636.20274,421.94175 Z M 794.95273,527.77508 689.1194,421.94175 v 52.91666 l 52.91667,52.91667 z m 0,-105.83333 v 52.91666 L 742.03607,421.94175 Z M 900.78605,527.77508 794.95272,421.94175 v 52.91666 l 52.91667,52.91667 z m 0,-105.83333 v 52.91666 L 847.86939,421.94175 Z M 1006.6194,527.77508 900.78605,421.94175 v 52.91666 l 52.91667,52.91667 z m 0,-105.83333 v 52.91666 l -52.91668,-52.91666 z m 105.8333,105.83333 -105.8333,-105.83333 v 52.91666 l 52.9166,52.91667 z m 0,-105.83333 v 52.91666 l -52.9167,-52.91666 z m -952.49992,0 L 54.119381,316.10842 v 52.91666 l 52.916699,52.91667 z m 0,-105.83333 v 52.91666 l -52.9167,-52.91666 z M 265.78609,421.94175 159.95278,316.10842 v 52.91666 l 52.9167,52.91667 z m 0,-105.83333 v 52.91666 L 212.86948,316.10842 Z M 371.61942,421.94175 265.78609,316.10842 v 52.91666 l 52.91667,52.91667 z m 0,-105.83333 v 52.91666 L 318.70276,316.10842 Z M 477.45274,421.94175 371.61941,316.10842 v 52.91666 l 52.91667,52.91667 z m 0,-105.83333 v 52.91666 L 424.53608,316.10842 Z M 583.28607,421.94175 477.45274,316.10842 v 52.91666 l 52.91667,52.91667 z m 0,-105.83333 v 52.91666 L 530.36941,316.10842 Z M 689.1194,421.94175 583.28607,316.10842 v 52.91666 l 52.91667,52.91667 z m 0,-105.83333 v 52.91666 L 636.20274,316.10842 Z M 794.95273,421.94175 689.1194,316.10842 v 52.91666 l 52.91667,52.91667 z m 0,-105.83333 v 52.91666 L 742.03607,316.10842 Z M 900.78605,421.94175 794.95272,316.10842 v 52.91666 l 52.91667,52.91667 z m 0,-105.83333 v 52.91666 L 847.86939,316.10842 Z M 1006.6194,421.94175 900.78605,316.10842 v 52.91666 l 52.91667,52.91667 z m 0,-105.83333 v 52.91666 l -52.91668,-52.91666 z m 105.8333,105.83333 -105.8333,-105.83333 v 52.91666 l 52.9166,52.91667 z m 0,-105.83333 v 52.91666 l -52.9167,-52.91666 z m -952.49992,0 L 54.119381,210.27509 v 52.91666 l 52.916699,52.91667 z m 0,-105.83333 v 52.91666 l -52.9167,-52.91666 z M 265.78609,316.10842 159.95278,210.27509 v 52.91666 l 52.9167,52.91667 z m 0,-105.83333 v 52.91666 L 212.86948,210.27509 Z M 371.61942,316.10842 265.78609,210.27509 v 52.91666 l 52.91667,52.91667 z m 0,-105.83333 v 52.91666 L 318.70276,210.27509 Z M 477.45274,316.10842 371.61941,210.27509 v 52.91666 l 52.91667,52.91667 z m 0,-105.83333 v 52.91666 L 424.53608,210.27509 Z M 583.28607,316.10842 477.45274,210.27509 v 52.91666 l 52.91667,52.91667 z m 0,-105.83333 v 52.91666 L 530.36941,210.27509 Z M 689.1194,316.10842 583.28607,210.27509 v 52.91666 l 52.91667,52.91667 z m 0,-105.83333 v 52.91666 L 636.20274,210.27509 Z M 794.95273,316.10842 689.1194,210.27509 v 52.91666 l 52.91667,52.91667 z m 0,-105.83333 v 52.91666 L 742.03607,210.27509 Z M 900.78605,316.10842 794.95272,210.27509 v 52.91666 l 52.91667,52.91667 z m 0,-105.83333 v 52.91666 L 847.86939,210.27509 Z M 1006.6194,316.10842 900.78605,210.27509 v 52.91666 l 52.91667,52.91667 z m 0,-105.83333 v 52.91666 l -52.91668,-52.91666 z m 105.8333,105.83333 -105.8333,-105.83333 v 52.91666 l 52.9166,52.91667 z m 0,-105.83333 v 52.91666 l -52.9167,-52.91666 z m -952.49992,0 L 54.119381,104.44176 v 52.91666 l 52.916699,52.91667 z m 0,-105.83333 v 52.91666 l -52.9167,-52.91666 z M 265.78609,210.27509 159.95278,104.44176 v 52.91666 l 52.9167,52.91667 z m 0,-105.83333 v 52.91666 L 212.86948,104.44176 Z M 371.61942,210.27509 265.78609,104.44176 v 52.91666 l 52.91667,52.91667 z m 0,-105.83333 v 52.91666 L 318.70276,104.44176 Z M 477.45274,210.27509 371.61941,104.44176 v 52.91666 l 52.91667,52.91667 z m 0,-105.83333 v 52.91666 L 424.53608,104.44176 Z M 583.28607,210.27509 477.45274,104.44176 v 52.91666 l 52.91667,52.91667 z m 0,-105.83333 v 52.91666 L 530.36941,104.44176 Z M 689.1194,210.27509 583.28607,104.44176 v 52.91666 l 52.91667,52.91667 z m 0,-105.83333 v 52.91666 L 636.20274,104.44176 Z M 794.95273,210.27509 689.1194,104.44176 v 52.91666 l 52.91667,52.91667 z m 0,-105.83333 v 52.91666 L 742.03607,104.44176 Z M 900.78605,210.27509 794.95272,104.44176 v 52.91666 l 52.91667,52.91667 z m 0,-105.83333 v 52.91666 L 847.86939,104.44176 Z M 1006.6194,210.27509 900.78605,104.44176 v 52.91666 l 52.91667,52.91667 z m 0,-105.83333 v 52.91666 l -52.91668,-52.91666 z m 105.8333,105.83333 -105.8333,-105.83333 v 52.91666 l 52.9166,52.91667 z m 0,-105.83333 v 52.91666 l -52.9167,-52.91666 z m 0,105.83333 -105.8333,-105.83333 v 52.91666 l 52.9166,52.91667 z m 0,-105.83333 v 52.91666 l -52.9167,-52.91666 z"
       style="opacity:0.2;fill:#0000ff;fill-opacity:0.67450982;stroke:none;stroke-width:0.26458332px;stroke-linecap:butt;stroke-linejoin:miter;stroke-opacity:1"
       id="path18662"
       inkscape:connector-curvature="0" />
    <path
       id="use18458"
       style="opacity:0.2;fill:#0000ff;fill-opacity:0.67450982;stroke:none;stroke-width:0.26458332px;stroke-linecap:butt;stroke-linejoin:miter;stroke-opacity:1"
       d="m 1112.605,1057.0648 -105.8334,105.8334 h 52.9167 l 52.9167,-52.9167 z m -105.8334,0 h 52.9167 l -52.9167,52.9167 z M 1112.605,951.23152 1006.7716,1057.0648 h 52.9167 l 52.9167,-52.9167 z m -105.8334,0 h 52.9167 l -52.9167,52.91658 z M 1112.605,845.39819 1006.7716,951.23152 h 52.9167 l 52.9167,-52.91667 z m -105.8334,0 h 52.9167 l -52.9167,52.91666 z M 1112.605,739.56487 1006.7716,845.3982 h 52.9167 l 52.9167,-52.91667 z m -105.8334,0 h 52.9167 l -52.9167,52.91666 z M 1112.605,633.73154 1006.7716,739.56487 h 52.9167 l 52.9167,-52.91667 z m -105.8334,0 h 52.9167 l -52.9167,52.91666 z M 1112.605,527.89821 1006.7716,633.73154 h 52.9167 l 52.9167,-52.91667 z m -105.8334,0 h 52.9167 l -52.9167,52.91666 z M 1112.605,422.06488 1006.7716,527.89821 h 52.9167 l 52.9167,-52.91667 z m -105.8334,0 h 52.9167 l -52.9167,52.91666 z M 1112.605,316.23156 1006.7716,422.06489 h 52.9167 l 52.9167,-52.91667 z m -105.8334,0 h 52.9167 l -52.9167,52.91666 z M 1112.605,210.39823 1006.7716,316.23156 h 52.9167 l 52.9167,-52.91667 z m -105.8334,0 h 52.9167 l -52.9167,52.91666 z M 1112.605,104.5649 1006.7716,210.39823 h 52.9167 l 52.9167,-52.91667 z m -105.8334,0 h 52.9167 l -52.9167,52.91666 z m 0,952.4999 -105.83331,105.8334 h 52.91666 l 52.91665,-52.9167 z m -105.83331,0 h 52.91666 l -52.91666,52.9167 z M 1006.7716,951.23152 900.93829,1057.0648 h 52.91666 l 52.91665,-52.9167 z m -105.83331,0 h 52.91666 l -52.91666,52.91658 z M 1006.7716,845.39819 900.93829,951.23152 h 52.91666 l 52.91665,-52.91667 z m -105.83331,0 h 52.91666 l -52.91666,52.91666 z M 1006.7716,739.56487 900.93829,845.3982 h 52.91666 l 52.91665,-52.91667 z m -105.83331,0 h 52.91666 l -52.91666,52.91666 z M 1006.7716,633.73154 900.93829,739.56487 h 52.91666 l 52.91665,-52.91667 z m -105.83331,0 h 52.91666 L 900.93829,686.6482 Z M 1006.7716,527.89821 900.93829,633.73154 h 52.91666 l 52.91665,-52.91667 z m -105.83331,0 h 52.91666 l -52.91666,52.91666 z M 1006.7716,422.06488 900.93829,527.89821 h 52.91666 l 52.91665,-52.91667 z m -105.83331,0 h 52.91666 l -52.91666,52.91666 z M 1006.7716,316.23156 900.93829,422.06489 h 52.91666 l 52.91665,-52.91667 z m -105.83331,0 h 52.91666 l -52.91666,52.91666 z M 1006.7716,210.39823 900.93829,316.23156 h 52.91666 l 52.91665,-52.91667 z m -105.83331,0 h 52.91666 l -52.91666,52.91666 z M 1006.7716,104.5649 900.93829,210.39823 h 52.91666 l 52.91665,-52.91667 z m -105.83331,0 h 52.91666 l -52.91666,52.91666 z m 0,952.4999 -105.83333,105.8334 h 52.91666 l 52.91667,-52.9167 z m -105.83333,0 h 52.91666 l -52.91666,52.9167 z M 900.93829,951.23152 795.10496,1057.0648 h 52.91666 l 52.91667,-52.9167 z m -105.83333,0 h 52.91666 l -52.91666,52.91658 z M 900.93829,845.39819 795.10496,951.23152 h 52.91666 l 52.91667,-52.91667 z m -105.83333,0 h 52.91666 l -52.91666,52.91666 z M 900.93829,739.56487 795.10496,845.3982 h 52.91666 l 52.91667,-52.91667 z m -105.83333,0 h 52.91666 l -52.91666,52.91666 z M 900.93829,633.73154 795.10496,739.56487 h 52.91666 l 52.91667,-52.91667 z m -105.83333,0 h 52.91666 L 795.10496,686.6482 Z M 900.93829,527.89821 795.10496,633.73154 h 52.91666 l 52.91667,-52.91667 z m -105.83333,0 h 52.91666 l -52.91666,52.91666 z M 900.93829,422.06488 795.10496,527.89821 h 52.91666 l 52.91667,-52.91667 z m -105.83333,0 h 52.91666 l -52.91666,52.91666 z M 900.93829,316.23156 795.10496,422.06489 h 52.91666 l 52.91667,-52.91667 z m -105.83333,0 h 52.91666 l -52.91666,52.91666 z M 900.93829,210.39823 795.10496,316.23156 h 52.91666 l 52.91667,-52.91667 z m -105.83333,0 h 52.91666 l -52.91666,52.91666 z M 900.93829,104.5649 795.10496,210.39823 h 52.91666 l 52.91667,-52.91667 z m -105.83333,0 h 52.91666 l -52.91666,52.91666 z m 0,952.4999 -105.83333,105.8334 h 52.91666 l 52.91667,-52.9167 z m -105.83333,0 h 52.91666 l -52.91666,52.9167 z M 795.10496,951.23152 689.27163,1057.0648 h 52.91666 l 52.91667,-52.9167 z m -105.83333,0 h 52.91666 l -52.91666,52.91658 z M 795.10496,845.39819 689.27163,951.23152 h 52.91666 l 52.91667,-52.91667 z m -105.83333,0 h 52.91666 l -52.91666,52.91666 z M 795.10496,739.56487 689.27163,845.3982 h 52.91666 l 52.91667,-52.91667 z m -105.83333,0 h 52.91666 l -52.91666,52.91666 z M 795.10496,633.73154 689.27163,739.56487 h 52.91666 l 52.91667,-52.91667 z m -105.83333,0 h 52.91666 L 689.27163,686.6482 Z M 795.10496,527.89821 689.27163,633.73154 h 52.91666 l 52.91667,-52.91667 z m -105.83333,0 h 52.91666 l -52.91666,52.91666 z M 795.10496,422.06488 689.27163,527.89821 h 52.91666 l 52.91667,-52.91667 z m -105.83333,0 h 52.91666 l -52.91666,52.91666 z M 795.10496,316.23156 689.27163,422.06489 h 52.91666 l 52.91667,-52.91667 z m -105.83333,0 h 52.91666 l -52.91666,52.91666 z M 795.10496,210.39823 689.27163,316.23156 h 52.91666 l 52.91667,-52.91667 z m -105.83333,0 h 52.91666 l -52.91666,52.91666 z M 795.10496,104.5649 689.27163,210.39823 h 52.91666 l 52.91667,-52.91667 z m -105.83333,0 h 52.91666 l -52.91666,52.91666 z m 0,952.4999 -105.83333,105.8334 h 52.91666 l 52.91667,-52.9167 z m -105.83333,0 h 52.91666 l -52.91666,52.9167 z M 689.27163,951.23152 583.4383,1057.0648 h 52.91666 l 52.91667,-52.9167 z m -105.83333,0 h 52.91666 L 583.4383,1004.1481 Z M 689.27163,845.39819 583.4383,951.23152 h 52.91666 l 52.91667,-52.91667 z m -105.83333,0 h 52.91666 L 583.4383,898.31485 Z M 689.27163,739.56487 583.4383,845.3982 h 52.91666 l 52.91667,-52.91667 z m -105.83333,0 h 52.91666 L 583.4383,792.48153 Z M 689.27163,633.73154 583.4383,739.56487 h 52.91666 l 52.91667,-52.91667 z m -105.83333,0 h 52.91666 L 583.4383,686.6482 Z M 689.27163,527.89821 583.4383,633.73154 h 52.91666 l 52.91667,-52.91667 z m -105.83333,0 h 52.91666 L 583.4383,580.81487 Z M 689.27163,422.06488 583.4383,527.89821 h 52.91666 l 52.91667,-52.91667 z m -105.83333,0 h 52.91666 L 583.4383,474.98154 Z M 689.27163,316.23156 583.4383,422.06489 h 52.91666 l 52.91667,-52.91667 z m -105.83333,0 h 52.91666 L 583.4383,369.14822 Z M 689.27163,210.39823 583.4383,316.23156 h 52.91666 l 52.91667,-52.91667 z m -105.83333,0 h 52.91666 L 583.4383,263.31489 Z M 689.27163,104.5649 583.4383,210.39823 h 52.91666 l 52.91667,-52.91667 z m -105.83333,0 h 52.91666 l -52.91666,52.91666 z m 0,952.4999 -105.83333,105.8334 h 52.91666 l 52.91667,-52.9167 z m -105.83333,0 h 52.91666 l -52.91666,52.9167 z M 583.4383,951.23152 477.60497,1057.0648 h 52.91666 l 52.91667,-52.9167 z m -105.83333,0 h 52.91666 l -52.91666,52.91658 z M 583.4383,845.39819 477.60497,951.23152 h 52.91666 l 52.91667,-52.91667 z m -105.83333,0 h 52.91666 l -52.91666,52.91666 z M 583.4383,739.56487 477.60497,845.3982 h 52.91666 l 52.91667,-52.91667 z m -105.83333,0 h 52.91666 l -52.91666,52.91666 z M 583.4383,633.73154 477.60497,739.56487 h 52.91666 L 583.4383,686.6482 Z m -105.83333,0 h 52.91666 L 477.60497,686.6482 Z M 583.4383,527.89821 477.60497,633.73154 h 52.91666 l 52.91667,-52.91667 z m -105.83333,0 h 52.91666 l -52.91666,52.91666 z M 583.4383,422.06488 477.60497,527.89821 h 52.91666 l 52.91667,-52.91667 z m -105.83333,0 h 52.91666 l -52.91666,52.91666 z M 583.4383,316.23156 477.60497,422.06489 h 52.91666 l 52.91667,-52.91667 z m -105.83333,0 h 52.91666 l -52.91666,52.91666 z M 583.4383,210.39823 477.60497,316.23156 h 52.91666 l 52.91667,-52.91667 z m -105.83333,0 h 52.91666 l -52.91666,52.91666 z M 583.4383,104.5649 477.60497,210.39823 h 52.91666 l 52.91667,-52.91667 z m -105.83333,0 h 52.91666 l -52.91666,52.91666 z m -10e-6,952.4999 -105.83333,105.8334 h 52.91666 l 52.91667,-52.9167 z m -105.83333,0 h 52.91666 l -52.91666,52.9167 z M 477.60496,951.23152 371.77163,1057.0648 h 52.91666 l 52.91667,-52.9167 z m -105.83333,0 h 52.91666 l -52.91666,52.91658 z M 477.60496,845.39819 371.77163,951.23152 h 52.91666 l 52.91667,-52.91667 z m -105.83333,0 h 52.91666 l -52.91666,52.91666 z M 477.60496,739.56487 371.77163,845.3982 h 52.91666 l 52.91667,-52.91667 z m -105.83333,0 h 52.91666 l -52.91666,52.91666 z M 477.60496,633.73154 371.77163,739.56487 h 52.91666 l 52.91667,-52.91667 z m -105.83333,0 h 52.91666 L 371.77163,686.6482 Z M 477.60496,527.89821 371.77163,633.73154 h 52.91666 l 52.91667,-52.91667 z m -105.83333,0 h 52.91666 l -52.91666,52.91666 z M 477.60496,422.06488 371.77163,527.89821 h 52.91666 l 52.91667,-52.91667 z m -105.83333,0 h 52.91666 l -52.91666,52.91666 z M 477.60496,316.23156 371.77163,422.06489 h 52.91666 l 52.91667,-52.91667 z m -105.83333,0 h 52.91666 l -52.91666,52.91666 z M 477.60496,210.39823 371.77163,316.23156 h 52.91666 l 52.91667,-52.91667 z m -105.83333,0 h 52.91666 l -52.91666,52.91666 z M 477.60496,104.5649 371.77163,210.39823 h 52.91666 l 52.91667,-52.91667 z m -105.83333,0 h 52.91666 l -52.91666,52.91666 z m 0,952.4999 -105.83333,105.8334 h 52.91666 l 52.91667,-52.9167 z m -105.83333,0 h 52.91666 l -52.91666,52.9167 z M 371.77163,951.23152 265.9383,1057.0648 h 52.91666 l 52.91667,-52.9167 z m -105.83333,0 h 52.91666 L 265.9383,1004.1481 Z M 371.77163,845.39819 265.9383,951.23152 h 52.91666 l 52.91667,-52.91667 z m -105.83333,0 h 52.91666 L 265.9383,898.31485 Z M 371.77163,739.56487 265.9383,845.3982 h 52.91666 l 52.91667,-52.91667 z m -105.83333,0 h 52.91666 L 265.9383,792.48153 Z M 371.77163,633.73154 265.9383,739.56487 h 52.91666 l 52.91667,-52.91667 z m -105.83333,0 h 52.91666 L 265.9383,686.6482 Z M 371.77163,527.89821 265.9383,633.73154 h 52.91666 l 52.91667,-52.91667 z m -105.83333,0 h 52.91666 L 265.9383,580.81487 Z M 371.77163,422.06488 265.9383,527.89821 h 52.91666 l 52.91667,-52.91667 z m -105.83333,0 h 52.91666 L 265.9383,474.98154 Z M 371.77163,316.23156 265.9383,422.06489 h 52.91666 l 52.91667,-52.91667 z m -105.83333,0 h 52.91666 L 265.9383,369.14822 Z M 371.77163,210.39823 265.9383,316.23156 h 52.91666 l 52.91667,-52.91667 z m -105.83333,0 h 52.91666 L 265.9383,263.31489 Z M 371.77163,104.5649 265.9383,210.39823 h 52.91666 l 52.91667,-52.91667 z m -105.83333,0 h 52.91666 l -52.91666,52.91666 z m 0,952.4999 -105.83333,105.8334 h 52.91666 l 52.91667,-52.9167 z m -105.83333,0 h 52.91666 l -52.91666,52.9167 z M 265.9383,951.23152 160.10497,1057.0648 h 52.91666 l 52.91667,-52.9167 z m -105.83333,0 h 52.91666 l -52.91666,52.91658 z M 265.9383,845.39819 160.10497,951.23152 h 52.91666 l 52.91667,-52.91667 z m -105.83333,0 h 52.91666 l -52.91666,52.91666 z M 265.9383,739.56487 160.10497,845.3982 h 52.91666 l 52.91667,-52.91667 z m -105.83333,0 h 52.91666 l -52.91666,52.91666 z M 265.9383,633.73154 160.10497,739.56487 h 52.91666 L 265.9383,686.6482 Z m -105.83333,0 h 52.91666 L 160.10497,686.6482 Z M 265.9383,527.89821 160.10497,633.73154 h 52.91666 l 52.91667,-52.91667 z m -105.83333,0 h 52.91666 l -52.91666,52.91666 z M 265.9383,422.06488 160.10497,527.89821 h 52.91666 l 52.91667,-52.91667 z m -105.83333,0 h 52.91666 l -52.91666,52.91666 z M 265.9383,316.23156 160.10497,422.06489 h 52.91666 l 52.91667,-52.91667 z m -105.83333,0 h 52.91666 l -52.91666,52.91666 z M 265.9383,210.39823 160.10497,316.23156 h 52.91666 l 52.91667,-52.91667 z m -105.83333,0 h 52.91666 l -52.91666,52.91666 z M 265.9383,104.5649 160.10497,210.39823 h 52.91666 l 52.91667,-52.91667 z m -105.83333,0 h 52.91666 l -52.91666,52.91666 z m 0,952.4999 -105.83333,105.8334 h 52.91666 l 52.91667,-52.9167 z m -105.83333,0 h 52.91666 l -52.91666,52.9167 z M 160.10497,951.23152 54.27164,1057.0648 h 52.91666 l 52.91667,-52.9167 z m -105.83333,0 H 107.1883 L 54.27164,1004.1481 Z M 160.10497,845.39819 54.27164,951.23152 h 52.91666 l 52.91667,-52.91667 z m -105.83333,0 H 107.1883 L 54.27164,898.31485 Z M 160.10497,739.56487 54.27164,845.3982 h 52.91666 l 52.91667,-52.91667 z m -105.83333,0 H 107.1883 L 54.27164,792.48153 Z M 160.10497,633.73154 54.27164,739.56487 h 52.91666 l 52.91667,-52.91667 z m -105.83333,0 H 107.1883 L 54.27164,686.6482 Z M 160.10497,527.89821 54.27164,633.73154 h 52.91666 l 52.91667,-52.91667 z m -105.83333,0 H 107.1883 L 54.27164,580.81487 Z M 160.10497,422.06488 54.27164,527.89821 h 52.91666 l 52.91667,-52.91667 z m -105.83333,0 H 107.1883 L 54.27164,474.98154 Z M 160.10497,316.23156 54.27164,422.06489 h 52.91666 l 52.91667,-52.91667 z m -105.83333,0 H 107.1883 L 54.27164,369.14822 Z M 160.10497,210.39823 54.27164,316.23156 h 52.91666 l 52.91667,-52.91667 z m -105.83333,0 H 107.1883 L 54.27164,263.31489 Z M 160.10497,104.5649 54.27164,210.39823 h 52.91666 l 52.91667,-52.91667 z m -105.83333,0 h 52.91666 l -52.91666,52.91666 z m 105.83333,0 -105.83333,105.83333 h 52.91666 l 52.91667,-52.91667 z m -105.83333,0 h 52.91666 l -52.91666,52.91666 z"
       inkscape:connector-curvature="0" />
  </g>
</svg>
