<?xml version="1.0" encoding="UTF-8" standalone="no"?>
<!-- Created with Inkscape (http://www.inkscape.org/) -->

<svg
   xmlns:dc="http://purl.org/dc/elements/1.1/"
   xmlns:cc="http://creativecommons.org/ns#"
   xmlns:rdf="http://www.w3.org/1999/02/22-rdf-syntax-ns#"
   xmlns:svg="http://www.w3.org/2000/svg"
   xmlns="http://www.w3.org/2000/svg"
   xmlns:sodipodi="http://sodipodi.sourceforge.net/DTD/sodipodi-0.dtd"
   xmlns:inkscape="http://www.inkscape.org/namespaces/inkscape"
   width="90.000702mm"
   height="131.04161mm"
   viewBox="0 0 90.000702 131.04161"
   version="1.1"
   id="svg8"
   sodipodi:docname="recipe-browser-icon-bolder.svg"
   inkscape:version="0.92.3 (2405546, 2018-03-11)">
  <defs
     id="defs2" />
  <sodipodi:namedview
     id="base"
     pagecolor="#ffffff"
     bordercolor="#666666"
     borderopacity="1.0"
     inkscape:pageopacity="0.0"
     inkscape:pageshadow="2"
     inkscape:zoom="0.5"
     inkscape:cx="-125.68306"
     inkscape:cy="497.26741"
     inkscape:document-units="mm"
     inkscape:current-layer="layer1"
     showgrid="false"
     showguides="true"
     inkscape:guide-bbox="true"
     inkscape:snap-global="true"
     inkscape:window-width="1664"
     inkscape:window-height="872"
     inkscape:window-x="0"
     inkscape:window-y="0"
     inkscape:window-maximized="1"
     fit-margin-top="0"
     fit-margin-left="0"
     fit-margin-right="0"
     fit-margin-bottom="0" />
  <metadata
     id="metadata5">
    <rdf:RDF>
      <cc:Work
         rdf:about="">
        <dc:format>image/svg+xml</dc:format>
        <dc:type
           rdf:resource="http://purl.org/dc/dcmitype/StillImage" />
        <dc:title />
      </cc:Work>
    </rdf:RDF>
  </metadata>
  <g
     inkscape:label="Layer 1"
     inkscape:groupmode="layer"
     id="layer1"
     transform="translate(-50.513196,-89.831208)">
    <path
       style="fill:#ffa844;fill-opacity:1;stroke-width:0.7869156"
       d="m 358.92578,365.18359 c -43.72763,0.21828 -93.33222,6.54413 -145.81055,24.08985 -1.60279,0.53588 -3.20833,1.08169 -4.8164,1.63867 -0.0435,0.0151 -0.0873,0.0299 -0.13086,0.0449 -1.54087,0.53421 -3.08334,1.07506 -4.62891,1.62891 -0.3771,0.13482 -0.75543,0.27415 -1.13281,0.41015 -1.21596,0.43922 -2.43163,0.87854 -3.65039,1.33008 -1.71842,0.63558 -3.44005,1.28182 -5.16406,1.94336 -0.001,5.2e-4 -0.003,10e-4 -0.004,0.002 l 0.38672,1.01172 h 0.004 l 81.98046,214.75 L 361,834.79492 446.03906,612.0332 l 81.97852,-214.75 h 0.004 l 0.4375,-1.14258 c -10e-4,-4.5e-4 -0.003,-0.001 -0.004,-0.002 -0.75499,-0.32419 -1.70763,-0.72505 -2.84961,-1.1914 -3.40097,-1.39254 -8.53108,-3.37844 -15.14258,-5.66211 -0.0159,-0.005 -0.029,-0.0101 -0.0449,-0.0156 -27.68721,-9.55897 -82.0103,-24.43276 -151.49219,-24.08594 z"
       id="path14"
       transform="scale(0.26458333)"
       inkscape:connector-curvature="0" />
    <path
       style="fill:#b98e52;fill-opacity:1;stroke:none;stroke-width:0.75685215"
       d="m 389.26953,339.51953 a 37.795276,37.795276 0 0 0 -27.95898,12.42969 37.795276,37.795276 0 0 0 -27.91016,-12.36914 37.795276,37.795276 0 0 0 -29.51562,14.24609 37.795276,37.795276 0 0 0 -24.09571,-8.69336 37.795276,37.795276 0 0 0 -32.74023,18.97657 37.795276,37.795276 0 0 0 -19.07031,-5.24024 37.795276,37.795276 0 0 0 -37.0625,30.41406 h 0.004 c 0.001,-5.3e-4 0.003,-0.001 0.004,-0.002 l -0.004,-0.008 h 0.0254 c 60.66728,-23.69497 118.13776,-31.84104 167.98047,-32.08985 101.94892,-0.50889 171.94882,32.00675 172.11914,32.08594 h 0.0273 a 37.795276,37.795276 0 0 0 -36.81055,-29.44141 37.795276,37.795276 0 0 0 -16.70117,3.95899 37.795276,37.795276 0 0 0 -32.76563,-19.05078 37.795276,37.795276 0 0 0 -25.37695,9.84179 37.795276,37.795276 0 0 0 -30.14844,-15.05859 z m 141.80469,49.75586 -0.002,0.006 0.004,0.002 a 37.795276,37.795276 0 0 0 -0.002,-0.008 z"
       transform="scale(0.26458333)"
       id="path4554"
       inkscape:connector-curvature="0" />
    <path
       style="fill:#655931;fill-opacity:1;stroke:none;stroke-width:0.99999994px;stroke-linecap:butt;stroke-linejoin:miter;stroke-opacity:1"
       d="m 358.92578,357.18359 c -49.84271,0.24881 -107.31319,8.39488 -167.98047,32.08985 h -0.0254 l 0.004,0.008 c -0.001,5.3e-4 -0.003,0.001 -0.004,0.002 h 0.004 l 2.66797,6.98633 c 6.53799,-2.50876 13.03567,-4.82718 19.49218,-6.98633 0.01,-0.003 0.0196,-0.007 0.0293,-0.01 52.47894,-17.54614 102.08442,-23.87157 145.8125,-24.08985 69.4856,-0.34684 123.80641,14.52704 151.49219,24.08594 0.009,0.003 0.0187,0.007 0.0273,0.01 0.004,10e-4 0.008,0.002 0.0117,0.004 8.81658,3.04514 14.98292,5.56076 17.99805,6.85547 l 2.61523,-6.85547 h 0.006 c 0,0 -0.004,-0.002 -0.004,-0.002 l 0.004,-0.0117 h -0.0312 C 530.8746,389.19034 460.8747,356.6747 358.92578,357.18359 Z"
       id="path956"
       transform="scale(0.26458333)"
       inkscape:connector-curvature="0" />
    <circle
       style="fill:#ffffff;fill-opacity:1;stroke:#666666;stroke-width:1.26499999;stroke-miterlimit:4;stroke-dasharray:none;stroke-opacity:1"
       id="path1014"
       cx="95.513451"
       cy="131.61569"
       r="15.154182" />
    <circle
       style="fill:#ffffff;fill-opacity:1;stroke:#666666;stroke-width:1.31782877;stroke-miterlimit:4;stroke-dasharray:none;stroke-opacity:1"
       id="path1020"
       cx="97.234375"
       cy="129.78333"
       r="12.541295" />
    <circle
       style="fill:#ffffff;fill-opacity:1;stroke:#666666;stroke-width:1.24458373;stroke-miterlimit:4;stroke-dasharray:none;stroke-opacity:1"
       id="path1022"
       cx="95.936768"
       cy="126.91374"
       r="7.377708" />
    <path
       style="fill:#655931;fill-opacity:1;stroke:none;stroke-width:0.26458332px;stroke-linecap:butt;stroke-linejoin:miter;stroke-opacity:1"
       d="m 94.965778,94.504823 c -13.18755,0.0658 -28.393281,2.221148 -44.444832,8.490437 h -0.0067 l 0.0011,0.002 c -2.65e-4,1.4e-4 -7.94e-4,2.6e-4 -0.0011,5.3e-4 h 0.0011 l 0.7059,1.84846 c 1.729843,-0.66377 3.449021,-1.27719 5.157306,-1.84846 0.0026,-8e-4 0.0052,-0.002 0.0078,-0.003 13.885053,-4.642418 27.009836,-6.316019 38.579557,-6.373769 18.384731,-0.0918 32.757111,3.843609 40.082311,6.372739 0.002,7.9e-4 0.005,0.002 0.007,0.003 0.001,2.7e-4 0.002,5.3e-4 0.003,0.001 2.33272,0.80569 3.96423,1.47128 4.76198,1.81384 l 0.69195,-1.81384 h 0.002 c 0,0 -0.001,-5.3e-4 -0.001,-5.3e-4 l 0.001,-0.003 h -0.008 c -0.0451,-0.021 -18.56593,-8.624117 -45.539912,-8.489477 z"
       id="path885"
       inkscape:connector-curvature="0" />
  </g>
</svg>
