<?xml version="1.0" encoding="UTF-8" standalone="no"?>
<!-- Created with Inkscape (http://www.inkscape.org/) -->

<svg
   xmlns:dc="http://purl.org/dc/elements/1.1/"
   xmlns:cc="http://creativecommons.org/ns#"
   xmlns:rdf="http://www.w3.org/1999/02/22-rdf-syntax-ns#"
   xmlns:svg="http://www.w3.org/2000/svg"
   xmlns="http://www.w3.org/2000/svg"
   xmlns:xlink="http://www.w3.org/1999/xlink"
   xmlns:sodipodi="http://sodipodi.sourceforge.net/DTD/sodipodi-0.dtd"
   xmlns:inkscape="http://www.inkscape.org/namespaces/inkscape"
   width="90.000702mm"
   height="131.04161mm"
   viewBox="0 0 90.000702 131.04161"
   version="1.1"
   id="svg8"
   sodipodi:docname="recipe-browser-icon-morecrust-shadow.svg"
   inkscape:version="0.92.3 (2405546, 2018-03-11)">
  <sodipodi:namedview
     id="base"
     pagecolor="#ffffff"
     bordercolor="#666666"
     borderopacity="1.0"
     inkscape:pageopacity="0.0"
     inkscape:pageshadow="2"
     inkscape:zoom="0.35355339"
     inkscape:cx="-87.24472"
     inkscape:cy="-14.461835"
     inkscape:document-units="mm"
     inkscape:current-layer="layer1"
     showgrid="false"
     showguides="true"
     inkscape:guide-bbox="true"
     inkscape:snap-global="true"
     inkscape:window-width="1664"
     inkscape:window-height="872"
     inkscape:window-x="0"
     inkscape:window-y="0"
     inkscape:window-maximized="1"
     fit-margin-top="0"
     fit-margin-left="0"
     fit-margin-right="0"
     fit-margin-bottom="0" />
  <defs
     id="defs2">
    <linearGradient
       inkscape:collect="always"
       id="linearGradient6474">
      <stop
         style="stop-color:#000000;stop-opacity:1;"
         offset="0"
         id="stop6470" />
      <stop
         style="stop-color:#000000;stop-opacity:0;"
         offset="1"
         id="stop6472" />
    </linearGradient>
    <linearGradient
       inkscape:collect="always"
       xlink:href="#linearGradient6474"
       id="linearGradient6476"
       x1="188"
       y1="179.27539"
       x2="522"
       y2="513.27539"
       gradientUnits="userSpaceOnUse" />
  </defs>
  <metadata
     id="metadata5">
    <rdf:RDF>
      <cc:Work
         rdf:about="">
        <dc:format>image/svg+xml</dc:format>
        <dc:type
           rdf:resource="http://purl.org/dc/dcmitype/StillImage" />
        <dc:title />
      </cc:Work>
    </rdf:RDF>
  </metadata>
  <g
     transform="translate(-50.513196,-89.831208)"
     id="layer1"
     inkscape:groupmode="layer"
     inkscape:label="Layer 1">
    <path
       style="fill:url(#linearGradient6476);fill-opacity:1;stroke:none;stroke-width:0.99999994;stroke-linecap:butt;stroke-linejoin:miter;stroke-opacity:1;opacity:0.40204082"
       d="M 205.82617 7.4746094 C 195.17179 7.4921668 185.01966 12.00573 177.86914 19.904297 C 170.71883 12.040226 160.58773 7.5503537 149.95898 7.5351562 C 138.46618 7.5491405 127.6042 12.791976 120.44336 21.78125 C 113.66826 16.166996 105.14663 13.092521 96.347656 13.087891 C 82.825346 13.101119 70.340337 20.33752 63.607422 32.064453 C 57.828441 28.65603 51.246315 26.847368 44.537109 26.824219 C 26.510796 26.826611 10.995043 39.559088 7.4746094 57.238281 L 7.4785156 57.238281 L 7.4824219 57.238281 L 10.150391 64.224609 C 11.925499 63.54347 13.697648 62.878313 15.466797 62.224609 C 15.415823 62.243457 15.365438 62.262361 15.314453 62.28125 C 13.596034 62.916815 11.874396 63.563041 10.150391 64.224609 C 10.149389 64.225101 10.147637 64.225542 10.146484 64.226562 L 10.533203 65.238281 L 10.537109 65.238281 L 92.517578 279.98828 L 177.55859 502.75 L 179.85156 496.74414 L 184.97656 510.16797 L 187.25195 504.20898 L 192.33594 517.52734 L 194.59375 511.61133 L 199.64258 524.83398 L 201.88281 518.96484 L 206.89062 532.08203 L 209.11328 526.25977 L 214.08203 539.27344 L 216.28711 533.49609 L 221.2168 546.4082 L 223.40625 540.67578 L 228.29688 553.48828 L 230.46875 547.80078 L 235.32031 560.51172 L 237.47266 554.87109 L 242.28516 567.47656 L 244.42188 561.88086 L 249.19531 574.38672 L 251.31445 568.83789 L 256.04883 581.24023 L 258.15039 575.73633 L 262.8457 588.03711 L 264.92969 582.58008 L 269.58594 594.7793 L 271.65234 589.36523 L 276.27148 601.46289 L 278.32031 596.09766 L 282.89844 608.08984 L 284.92969 602.76758 L 289.4707 614.66211 L 291.48438 609.38672 L 295.98633 621.17773 L 297.98242 615.94727 L 302.44531 627.63672 L 304.42383 622.45312 L 308.84766 634.03906 L 310.80859 628.90039 L 315.19336 640.38477 L 317.13672 635.29297 L 321.48242 646.67383 L 323.4082 641.62695 L 327.71484 652.90625 L 329.625 647.9043 L 333.89258 659.08398 L 335.78516 654.12695 L 340.01367 665.20312 L 341.88672 660.29492 L 346.07617 671.26758 L 347.93359 666.40234 L 352.08398 677.27539 L 353.92188 672.45898 L 358.0332 683.22656 L 359.85547 678.45312 L 363.92773 689.12109 L 365.73242 684.39062 L 369.76758 694.95898 L 371.55469 690.27734 L 375.54883 700.74023 L 377.31836 696.10547 L 381.27344 706.46484 L 383.02539 701.87305 L 386.94336 712.13477 L 388.67773 707.5918 L 392.55469 717.74805 L 394.27344 713.24805 L 398.11133 723.30273 L 399.81055 718.84961 L 403.61133 728.80273 L 405.29492 724.39453 L 409.05469 734.24609 L 410.7207 729.88477 L 414.44141 739.63281 L 416.08789 735.31836 L 419.77148 744.96484 L 421.40234 740.69141 L 425.04688 750.23828 L 426.66016 746.01367 L 430.26367 755.45508 L 431.85938 751.27539 L 435.42578 760.61719 L 437.00391 756.48633 L 440.5293 765.72266 L 442.08984 761.63477 L 445.57812 770.77148 L 447.12109 766.72852 L 450.57031 775.76172 L 452.0957 771.76562 L 455.50586 780.69922 L 457.01562 776.74609 L 460.38672 785.57812 L 461.87695 781.67383 L 465.20898 790.40039 L 466.68164 786.54102 L 469.97461 795.16602 L 471.43164 791.35156 L 474.68555 799.87695 L 476.12305 796.11133 L 479.33789 804.53125 L 480.75977 800.80664 L 483.93555 809.12695 L 485.33984 805.44922 L 488.47656 813.66797 L 489.86328 810.03711 L 492.96094 818.15234 L 494.33008 814.56641 L 497.38867 822.58008 L 498.74023 819.03906 L 501.76172 826.95312 L 503.0957 823.45898 L 506.07617 831.26758 L 507.39258 827.82031 L 510.33398 835.52734 L 511.63281 832.12305 L 514.53711 839.72852 L 515.81836 836.37109 L 518.68359 843.875 L 519.94727 840.5625 L 522.77344 847.96484 L 524.01953 844.69922 L 526.80664 851.99805 L 528.03516 848.77734 L 530.7832 855.97461 L 531.99414 852.80078 L 534.70312 859.89453 L 535.89648 856.76562 L 538.56641 863.75781 L 539.74414 860.67383 L 542.375 867.56641 L 543.53516 864.5293 L 546.125 871.31641 L 547.26758 868.32422 L 549.82031 875.01172 L 550.94531 872.06445 L 553.45898 878.65039 L 554.56641 875.75 L 557.04102 882.23242 L 558.13086 879.37695 L 560.56641 885.75781 L 561.63867 882.94922 L 564.03516 889.22656 L 565.08984 886.46289 L 567.44727 892.63867 L 568.48438 889.91992 L 570.80469 895.99609 L 571.82422 893.32422 L 574.10352 899.29492 L 575.10547 896.66797 L 577.34766 902.53906 L 578.33203 899.95898 L 580.53516 905.72656 L 581.50195 903.19336 L 583.66406 908.85742 L 584.61523 906.36719 L 586.73828 911.93164 L 587.67188 909.48633 L 589.75781 914.94922 L 590.67383 912.55078 L 592.71875 917.91016 L 593.61719 915.55859 L 595.62305 920.81445 L 596.50391 918.50781 L 598.47266 923.66406 L 599.33594 921.4043 L 601.26367 926.45508 L 602.10938 924.24023 L 604 929.19141 L 604.82812 927.02148 L 606.67969 931.87109 L 607.49023 929.74805 L 609.30273 934.49414 L 610.0957 932.41602 L 611.86914 937.06055 L 612.64453 935.02734 L 614.37891 939.57031 L 615.13672 937.58398 L 616.83203 942.02344 L 617.57422 940.08203 L 619.23047 944.42188 L 619.95312 942.52734 L 621.57031 946.76172 L 622.27734 944.91211 L 623.85547 949.04688 L 624.54492 947.24219 L 626.08398 951.27539 L 626.75586 949.51758 L 628.25586 953.44727 L 628.91016 951.73438 L 630.37109 955.5625 L 631.00781 953.89648 L 632.42969 957.62109 L 633.04883 956 L 634.43164 959.62305 L 635.0332 958.04688 L 636.37891 961.57031 L 636.96289 960.04102 L 638.26758 963.45898 L 638.83398 961.97461 L 640.10156 965.29297 L 640.65039 963.85547 L 641.87695 967.06836 L 642.4082 965.67578 L 643.59766 968.78906 L 644.11133 967.44141 L 645.26172 970.45312 L 645.75781 969.15234 L 646.86914 972.06055 L 647.34961 970.80273 L 648.42188 973.61328 L 648.88281 972.4043 L 649.91602 975.10742 L 650.36133 973.94336 L 651.35352 976.54492 L 651.78125 975.42578 L 652.73633 977.92773 L 653.14648 976.85352 L 654.0625 979.25391 L 654.45508 978.22656 L 655.33008 980.52148 L 655.70508 979.53906 L 656.54297 981.73438 L 656.90039 980.79883 L 657.69922 982.89062 L 658.03906 981.99805 L 658.80078 983.99219 L 659.12305 983.14844 L 659.84375 985.03516 L 660.14844 984.23633 L 660.83008 986.02148 L 661.11719 985.26758 L 661.76172 986.95312 L 662.03125 986.24414 L 662.63672 987.82812 L 662.88867 987.16797 L 663.45312 988.64453 L 663.68945 988.02734 L 664.21484 989.40625 L 664.43359 988.83594 L 664.91992 990.11133 L 665.12109 989.58594 L 665.56836 990.75977 L 665.75195 990.2793 L 666.16211 991.35352 L 666.32812 990.91992 L 666.69727 991.88867 L 666.8457 991.50195 L 667.17578 992.36719 L 667.30664 992.02344 L 667.59961 992.79102 L 667.71289 992.49414 L 667.9668 993.1582 L 668.0625 992.90625 L 668.27734 993.46875 L 668.35547 993.26367 L 668.53125 993.72266 L 668.5918 993.5625 L 668.72852 993.91992 L 668.77148 993.80664 L 668.86914 994.06055 L 668.89453 993.99219 L 668.95312 994.14453 L 753.99219 771.38281 L 835.9707 556.63281 L 835.97461 556.63281 L 836.41211 555.49023 C 836.41113 555.48982 836.409 555.48926 836.4082 555.48828 C 836.4082 555.48828 836.40625 555.48828 836.40625 555.48828 L 839.02148 548.63281 L 839.02539 548.63281 L 839.0293 548.63477 C 839.0293 548.63477 839.0293 548.63281 839.0293 548.63281 C 839.02879 548.63118 839.02784 548.62984 839.02734 548.62695 L 839.02734 548.625 L 839.0293 548.61914 L 839.02539 548.61914 C 837.43423 541.59832 833.94698 535.40915 829.17773 530.53906 C 829.17258 530.5338 829.16727 530.5287 829.16211 530.52344 C 829.12325 530.48355 829.082 530.44596 829.04297 530.40625 C 828.98127 530.3428 828.9176 530.28175 828.85547 530.21875 C 828.77516 530.13611 828.69237 530.05649 828.61133 529.97461 C 828.51307 529.87343 828.41185 529.77583 828.3125 529.67578 C 828.19549 529.5552 828.07364 529.43929 827.95508 529.32031 C 827.82138 529.18242 827.68261 529.04985 827.54688 528.91406 C 827.39275 528.75491 827.233 528.60167 827.07617 528.44531 C 826.90413 528.26754 826.72814 528.09421 826.55273 527.91992 C 826.3589 527.71944 826.15905 527.52612 825.96094 527.33008 C 825.75507 527.11714 825.54272 526.91106 825.33203 526.70312 C 825.10457 526.46749 824.87202 526.23732 824.63867 526.00781 C 824.39277 525.75287 824.1395 525.50559 823.88672 525.25781 C 823.62269 524.98386 823.35204 524.71686 823.08008 524.45117 C 822.79168 524.15167 822.49709 523.85994 822.19922 523.57031 C 821.89865 523.25836 821.59013 522.95357 821.2793 522.65234 C 820.964 522.32478 820.64106 522.00519 820.31445 521.68945 C 819.97799 521.33931 819.63452 520.99681 819.28516 520.66016 C 818.92285 520.28269 818.555 519.91258 818.17773 519.55078 C 817.80983 519.16773 817.4341 518.79268 817.05078 518.42578 C 816.65844 518.01637 816.25756 517.61561 815.84766 517.22461 C 815.43699 516.79572 815.0178 516.37548 814.58789 515.9668 C 814.14776 515.50678 813.70245 515.05396 813.24023 514.61719 C 812.8057 514.16383 812.36423 513.71784 811.9082 513.28711 C 811.44944 512.80663 810.98086 512.33603 810.49805 511.88086 C 810.01966 511.37872 809.53194 510.88471 809.02734 510.41016 C 808.53399 509.89133 808.03105 509.38397 807.50977 508.89453 C 807.00244 508.35965 806.48226 507.83772 805.94531 507.33398 C 805.41639 506.77445 804.87375 506.22869 804.3125 505.70312 C 803.76652 505.12416 803.20551 504.56027 802.625 504.01758 C 802.0611 503.41807 801.47975 502.8361 800.87891 502.27539 C 800.29465 501.6527 799.69433 501.04774 799.07031 500.4668 C 798.47457 499.83075 797.85981 499.21366 797.22266 498.62109 C 796.60655 497.96114 795.96916 497.32229 795.30859 496.70898 C 794.67346 496.027 794.01454 495.36862 793.33203 494.73633 C 792.68036 494.03512 792.00439 493.35776 791.30273 492.70898 C 790.63597 491.98987 789.94384 491.29691 789.22461 490.63281 C 788.53806 489.89022 787.82439 489.17629 787.08203 488.49219 C 786.3795 487.7306 785.64783 486.99902 784.88672 486.29883 C 784.16937 485.51926 783.41922 484.77205 782.64062 484.05664 C 781.90418 483.25384 781.13326 482.48497 780.33203 481.75 C 779.57606 480.92384 778.78536 480.13341 777.96094 479.37891 C 777.19264 478.53764 776.38408 477.73586 775.54492 476.96875 C 774.75456 476.10072 773.92419 475.27173 773.05859 474.48242 C 772.25496 473.5982 771.40892 472.75581 770.52734 471.95312 C 769.7026 471.04315 768.83286 470.17931 767.92578 469.35547 C 767.08749 468.42898 766.2028 467.54829 765.2793 466.71094 C 764.42902 465.76878 763.53002 464.87562 762.5918 464.02539 C 761.72128 463.05724 760.7971 462.14097 759.83398 461.26953 C 758.9412 460.27391 757.99241 459.33305 757.00195 458.43945 C 756.09235 457.42381 755.12437 456.46426 754.11328 455.55469 C 753.1891 454.52133 752.20682 453.54477 751.17773 452.62109 C 750.23529 451.56514 749.23145 450.56858 748.17969 449.62695 C 747.22158 448.55171 746.20018 447.53695 745.12891 446.58008 C 744.15276 445.48249 743.11142 444.4471 742.01758 443.47266 C 741.02197 442.35136 739.96001 441.29372 738.8418 440.30078 C 737.83398 439.16465 736.7605 438.09233 735.62695 437.08789 C 734.60126 435.92905 733.50583 434.83656 732.34961 433.81445 C 731.3055 432.63255 730.19134 431.52037 729.01172 430.48047 C 727.95001 429.27684 726.8153 428.14245 725.61328 427.08594 C 724.53648 425.86369 723.38729 424.71131 722.16602 423.64062 C 721.07468 422.39979 719.90796 421.23135 718.66797 420.14648 C 717.55574 418.87898 716.36661 417.6871 715.09961 416.58203 C 713.97466 415.29861 712.77172 414.08967 711.48828 412.97266 C 710.34778 411.66877 709.12409 410.44301 707.82031 409.31055 C 706.66395 407.98553 705.42229 406.74016 704.09766 405.5918 C 702.92523 404.24519 701.66619 402.98291 700.32031 401.81836 C 699.13088 400.44899 697.84889 399.16589 696.48047 397.98438 C 695.27682 396.59582 693.97917 395.29537 692.5918 394.09961 C 691.37128 392.68789 690.05453 391.36918 688.64453 390.15625 C 687.40954 388.72441 686.07211 387.38991 684.64258 386.16211 C 683.38743 384.70299 682.02896 383.34343 680.57227 382.0957 C 679.30465 380.61981 677.93056 379.24429 676.45703 377.98438 C 675.17446 376.48735 673.78111 375.09369 672.28711 373.81836 C 670.98569 372.29534 669.56857 370.88004 668.04883 369.58594 C 666.73564 368.0464 665.30548 366.61655 663.76953 365.31055 C 662.43882 363.74595 660.98602 362.29475 659.42578 360.9707 C 658.07878 359.38342 656.60621 357.91246 655.02344 356.57227 C 653.66159 354.96407 652.16984 353.47613 650.56641 352.12109 C 649.18929 350.49111 647.67949 348.98373 646.05469 347.61328 C 644.66332 345.96251 643.13516 344.4379 641.49023 343.05273 C 640.08094 341.37631 638.52959 339.83087 636.85938 338.42773 C 635.43759 336.73317 633.87154 335.17167 632.18359 333.75586 C 630.74356 332.0348 629.15342 330.4518 627.43945 329.01758 C 625.98703 327.27835 624.38211 325.67924 622.65039 324.23242 C 621.18189 322.46908 619.55575 320.85024 617.80078 319.38672 C 616.31712 317.60093 614.67142 315.96332 612.89453 314.48438 C 611.39544 312.67571 609.72897 311.01996 607.92969 309.52539 C 606.41576 307.69458 604.7311 306.0194 602.91016 304.50977 C 601.37823 302.65276 599.66939 300.95692 597.82227 299.42969 C 596.27614 297.55251 594.55131 295.83748 592.68359 294.29688 C 591.12192 292.39699 589.37878 290.66116 587.48828 289.10547 C 585.91265 287.18516 584.15126 285.43247 582.24023 283.86328 C 580.64681 281.9169 578.86307 280.14295 576.92578 278.55664 C 575.31835 276.59005 573.51848 274.79671 571.56055 273.19727 C 569.93786 271.20827 568.11929 269.39525 566.13867 267.78125 C 564.50075 265.76982 562.66349 263.93709 560.66016 262.30859 C 559.00853 260.27651 557.15484 258.42505 555.13086 256.7832 C 553.46219 254.7257 551.58677 252.85344 549.53711 251.19531 C 547.85387 249.1164 545.96025 247.22443 543.88867 245.55273 C 542.19041 243.45131 540.27993 241.54142 538.18555 239.85547 C 536.47368 237.73321 534.54491 235.80267 532.42969 234.10352 C 530.70173 231.9567 528.75126 230.00758 526.61133 228.29297 C 524.86912 226.12446 522.90209 224.1559 520.74023 222.42773 C 518.98449 220.23797 516.99936 218.25125 514.81641 216.50977 C 513.0456 214.29607 511.0386 212.29162 508.83203 210.53516 C 507.04795 208.30007 505.02441 206.27568 502.79688 204.50586 C 500.99707 202.24555 498.9536 200.19951 496.70117 198.41406 C 494.88813 196.13247 492.82424 194.072 490.55078 192.27344 C 488.72344 189.96819 486.6402 187.8874 484.34375 186.07422 C 482.50299 183.74676 480.40209 181.64714 478.08398 179.82031 C 476.22827 177.468 474.10602 175.34983 471.76367 173.50781 C 469.89407 171.1325 467.75357 168.99464 465.38867 167.13867 C 463.50474 164.73953 461.34336 162.58325 458.95508 160.71289 C 457.05703 158.29026 454.87623 156.11491 452.46484 154.23047 C 450.55313 151.78491 448.35381 149.58956 445.91992 147.69141 C 443.99546 145.22375 441.77744 143.01298 439.32227 141.10156 C 437.3816 138.60669 435.14023 136.37279 432.6582 134.44531 C 430.70559 131.93029 428.44919 129.67955 425.94727 127.74023 C 423.98036 125.20026 421.70185 122.93061 419.17578 120.97656 C 417.1949 118.41267 414.89726 116.12228 412.34766 114.1543 C 410.35352 111.56755 408.03688 109.25859 405.46484 107.27734 C 403.45638 104.66585 401.11788 102.33926 398.52148 100.34375 C 396.50137 97.711447 394.14773 95.366957 391.53125 93.359375 C 389.4957 90.699701 387.11773 88.33386 384.47461 86.310547 C 382.42759 83.630133 380.03421 81.248122 377.37109 79.212891 C 375.30765 76.503761 372.88876 74.0983 370.19727 72.046875 C 368.12237 69.317895 365.68783 66.89649 362.97656 64.833984 C 360.88909 62.081727 358.43477 59.64214 355.70117 57.566406 C 353.59773 54.785613 351.12104 52.324047 348.35938 50.232422 C 346.24276 47.429278 343.74733 44.947484 340.96289 42.84375 C 334.00208 33.606764 322.97131 27.799262 310.81836 27.783203 C 305.49462 27.802988 300.24634 28.959213 295.4043 31.146484 C 294.17191 29.917436 292.85577 28.784123 291.47461 27.742188 C 284.40233 18.356171 273.28585 12.708457 261.35156 12.691406 C 251.96386 12.706524 242.91779 16.21485 235.97461 22.533203 C 228.84334 13.063744 217.68241 7.4887253 205.82812 7.4746094 L 205.82617 7.4746094 z "
       transform="matrix(0.26458333,0,0,0.26458333,50.513196,89.831208)"
       id="path5912" />
    <path
       inkscape:connector-curvature="0"
       transform="scale(0.26458333)"
       id="path956"
       d="m 358.92578,357.18359 c -49.84271,0.24881 -107.31319,8.39488 -167.98047,32.08985 h -0.0254 l 0.004,0.008 c -0.001,5.3e-4 -0.003,0.001 -0.004,0.002 h 0.004 l 2.66797,6.98633 c 6.53799,-2.50876 13.03567,-4.82718 19.49218,-6.98633 0.01,-0.003 0.0196,-0.007 0.0293,-0.01 52.47894,-17.54614 102.08442,-23.87157 145.8125,-24.08985 69.4856,-0.34684 123.80641,14.52704 151.49219,24.08594 0.009,0.003 0.0187,0.007 0.0273,0.01 0.004,10e-4 0.008,0.002 0.0117,0.004 8.81658,3.04514 14.98292,5.56076 17.99805,6.85547 l 2.61523,-6.85547 h 0.006 c 0,0 -0.004,-0.002 -0.004,-0.002 l 0.004,-0.0117 h -0.0312 C 530.8746,389.19034 460.8747,356.6747 358.92578,357.18359 Z"
       style="fill:#b98e52;fill-opacity:1;stroke:none;stroke-width:0.99999994px;stroke-linecap:butt;stroke-linejoin:miter;stroke-opacity:1" />
    <path
       inkscape:connector-curvature="0"
       id="path885"
       d="m 94.965778,94.504823 c -13.18755,0.0658 -28.393281,2.221148 -44.444832,8.490437 h -0.0067 l 0.0011,0.002 c -2.65e-4,1.4e-4 -7.94e-4,2.6e-4 -0.0011,5.3e-4 h 0.0011 l 0.7059,1.84846 c 1.729843,-0.66377 3.449021,-1.27719 5.157306,-1.84846 0.0026,-8e-4 0.0052,-0.002 0.0078,-0.003 13.885053,-4.642418 27.009836,-6.316019 38.579557,-6.373769 18.384731,-0.0918 32.757111,3.843609 40.082311,6.372739 0.002,7.9e-4 0.005,0.002 0.007,0.003 0.001,2.7e-4 0.002,5.3e-4 0.003,0.001 2.33272,0.80569 3.96423,1.47128 4.76198,1.81384 l 0.69195,-1.81384 h 0.002 c 0,0 -0.001,-5.3e-4 -0.001,-5.3e-4 l 0.001,-0.003 h -0.008 c -0.0451,-0.021 -18.56593,-8.624117 -45.539912,-8.489477 z"
       style="fill:#b98e52;fill-opacity:1;stroke:none;stroke-width:0.26458332px;stroke-linecap:butt;stroke-linejoin:miter;stroke-opacity:1" />
    <path
       inkscape:connector-curvature="0"
       transform="scale(0.26458333)"
       id="path14"
       d="m 358.92578,365.18359 c -43.72763,0.21828 -93.33222,6.54413 -145.81055,24.08985 -1.60279,0.53588 -3.20833,1.08169 -4.8164,1.63867 -0.0435,0.0151 -0.0873,0.0299 -0.13086,0.0449 -1.54087,0.53421 -3.08334,1.07506 -4.62891,1.62891 -0.3771,0.13482 -0.75543,0.27415 -1.13281,0.41015 -1.21596,0.43922 -2.43163,0.87854 -3.65039,1.33008 -1.71842,0.63558 -3.44005,1.28182 -5.16406,1.94336 -0.001,5.2e-4 -0.003,10e-4 -0.004,0.002 l 0.38672,1.01172 h 0.004 l 81.98046,214.75 L 361,834.79492 446.03906,612.0332 l 81.97852,-214.75 h 0.004 l 0.4375,-1.14258 c -10e-4,-4.5e-4 -0.003,-0.001 -0.004,-0.002 -0.75499,-0.32419 -1.70763,-0.72505 -2.84961,-1.1914 -3.40097,-1.39254 -8.53108,-3.37844 -15.14258,-5.66211 -0.0159,-0.005 -0.029,-0.0101 -0.0449,-0.0156 -27.68721,-9.55897 -82.0103,-24.43276 -151.49219,-24.08594 z"
       style="fill:#ffa844;fill-opacity:1;stroke-width:0.7869156" />
    <circle
       r="15.154182"
       cy="131.61569"
       cx="95.513451"
       id="path1014"
       style="fill:#ffffff;fill-opacity:1;stroke:#666666;stroke-width:1.26499999;stroke-miterlimit:4;stroke-dasharray:none;stroke-opacity:1" />
    <circle
       r="12.541295"
       cy="129.78333"
       cx="97.234375"
       id="path1020"
       style="fill:#ffffff;fill-opacity:1;stroke:#666666;stroke-width:1.31782877;stroke-miterlimit:4;stroke-dasharray:none;stroke-opacity:1" />
    <circle
       r="7.377708"
       cy="126.91374"
       cx="95.936768"
       id="path1022"
       style="fill:#ffffff;fill-opacity:1;stroke:#666666;stroke-width:1.24458373;stroke-miterlimit:4;stroke-dasharray:none;stroke-opacity:1" />
    <path
       transform="matrix(0.26458333,0,0,0.26458333,50.513196,89.831208)"
       id="path875"
       d="M 12.773438 83.144531 L 15.455078 90.169922 C 17.688384 89.387278 19.944394 88.507261 22.167969 87.763672 C 22.177796 87.760648 22.187439 87.755733 22.197266 87.751953 C 74.676206 70.205761 124.28169 63.880377 168.00977 63.662109 C 237.49536 63.315149 291.81616 78.18913 319.50195 87.748047 C 319.50951 87.751033 319.52174 87.755986 319.5293 87.759766 C 319.53308 87.760786 319.53724 87.761895 319.54102 87.763672 C 322.14057 88.661524 322.72174 88.997094 324.84766 89.785156 L 327.56836 82.658203 C 303.10654 73.519312 244.60772 55.281735 168.01172 55.664062 L 168.00977 55.664062 C 121.68158 55.895219 68.723408 63.123081 12.773438 83.144531 z "
       style="fill:#655931;fill-opacity:1;stroke:none;stroke-width:0.99999994px;stroke-linecap:butt;stroke-linejoin:miter;stroke-opacity:1" />
    <path
       transform="matrix(0.26458333,0,0,0.26458333,50.513196,89.831208)"
       id="path919"
       d="M 228.58398 27.287109 C 215.00479 25.619571 200.52438 24.394249 185.11914 23.916016 L 228.58398 27.287109 z "
       style="fill:#b98e52;fill-opacity:1;stroke:none;stroke-width:0.99999994px;stroke-linecap:butt;stroke-linejoin:miter;stroke-opacity:1" />
    <path
       transform="matrix(0.26458333,0,0,0.26458333,50.513196,89.831208)"
       id="path913"
       d="M 118.02344 26.685547 C 107.92002 27.815751 97.661916 29.206941 87.15625 31.103516 L 118.02344 26.685547 z "
       style="fill:#b98e52;fill-opacity:1;stroke:none;stroke-width:0.99999994px;stroke-linecap:butt;stroke-linejoin:miter;stroke-opacity:1" />
    <path
       transform="matrix(0.26458333,0,0,0.26458333,50.513196,89.831208)"
       id="path883"
       d="M 118.02344 26.685547 L 87.15625 31.103516 C 59.877983 36.028027 31.337607 43.736313 2.0410156 55.025391 L 12.769531 83.132812 C 15.90174 82.014181 19.054809 80.804748 22.167969 79.763672 C 22.177796 79.760648 22.187439 79.755733 22.197266 79.751953 C 74.676205 62.205761 124.28169 55.880377 168.00977 55.662109 C 237.49535 55.315149 291.81616 70.18913 319.50195 79.748047 C 319.50951 79.751033 319.52174 79.755986 319.5293 79.759766 C 319.53308 79.760786 319.53724 79.761895 319.54102 79.763672 C 323.46102 81.117588 324.71482 81.728703 327.54297 82.8125 L 338.17773 54.958984 C 334.05765 53.098502 293.2604 35.229438 228.58398 27.287109 L 185.11914 23.916016 C 179.51529 23.742052 173.83079 23.635017 168.01172 23.664062 L 168.00977 23.664062 C 152.10054 23.743442 135.34283 24.748139 118.02344 26.685547 z "
       style="fill:#b98e52;fill-opacity:1;stroke:none;stroke-width:0.99999994px;stroke-linecap:butt;stroke-linejoin:miter;stroke-opacity:1" />
    <path
       inkscape:connector-curvature="0"
       id="path4554"
       transform="scale(0.26458333)"
       d="m 389.26953,339.51953 a 37.795276,37.795276 0 0 0 -27.95898,12.42969 37.795276,37.795276 0 0 0 -27.91016,-12.36914 37.795276,37.795276 0 0 0 -29.51562,14.24609 37.795276,37.795276 0 0 0 -24.09571,-8.69336 37.795276,37.795276 0 0 0 -32.74023,18.97657 37.795276,37.795276 0 0 0 -19.07031,-5.24024 37.795276,37.795276 0 0 0 -37.0625,30.41406 h 0.004 c 0.001,-5.3e-4 0.003,-0.001 0.004,-0.002 l -0.004,-0.008 h 0.0254 c 60.66728,-23.69497 118.13776,-31.84104 167.98047,-32.08985 101.94892,-0.50889 171.94882,32.00675 172.11914,32.08594 h 0.0273 a 37.795276,37.795276 0 0 0 -36.81055,-29.44141 37.795276,37.795276 0 0 0 -16.70117,3.95899 37.795276,37.795276 0 0 0 -32.76563,-19.05078 37.795276,37.795276 0 0 0 -25.37695,9.84179 37.795276,37.795276 0 0 0 -30.14844,-15.05859 z m 141.80469,49.75586 -0.002,0.006 0.004,0.002 a 37.795276,37.795276 0 0 0 -0.002,-0.008 z"
       style="fill:#b98e52;fill-opacity:1;stroke:none;stroke-width:0.75685215" />
  </g>
</svg>
